<svg width="64" height="64" viewBox="0 0 64 64" fill="none" xmlns="http://www.w3.org/2000/svg">
<path d="M59.9971 18.816C59.9967 17.7399 59.7704 16.789 59.3126 15.9729C58.863 15.1703 58.1897 14.4977 57.2865 13.9659C49.8314 9.59476 42.369 5.23701 34.9163 0.86143C32.9071 -0.318075 30.959 -0.275075 28.9647 0.921363C25.9973 2.70087 11.1407 11.356 6.71365 13.9634C4.89045 15.0367 4.00329 16.6791 4.00285 18.814C4 27.6046 4.00285 36.395 4 45.1858C4.00044 46.2383 4.21714 47.1707 4.65469 47.9746C5.10452 48.8014 5.78726 49.4925 6.71124 50.0364C11.1385 52.6438 25.9971 61.2983 28.9638 63.0782C30.959 64.2753 32.9071 64.3181 34.917 63.1382C42.3699 58.7624 49.8327 54.4048 57.289 50.0337C58.2129 49.4901 58.8957 48.7985 59.3455 47.9723C59.7824 47.1685 59.9995 46.2361 60 45.1833C60 45.1833 60 27.6068 59.9971 18.816" fill="#5C8DBC"/>
<path d="M32.0856 31.9142L4.65466 47.9746C5.10449 48.8014 5.78723 49.4925 6.71121 50.0364C11.1385 52.6438 25.9971 61.2983 28.9638 63.0782C30.959 64.2753 32.9071 64.3181 34.9169 63.1382C42.3699 58.7624 49.8327 54.4048 57.2889 50.0337C58.2129 49.4901 58.8956 48.7985 59.3455 47.9724L32.0856 31.9142" fill="#1A4674"/>
<path d="M23.9609 36.6715C25.5571 39.5051 28.5578 41.4162 32 41.4162C35.4634 41.4162 38.4812 39.4808 40.0693 36.6169L32.0857 31.9142L23.9609 36.6715" fill="#1A4674"/>
<path d="M59.9972 18.816C59.9967 17.7399 59.7704 16.789 59.3127 15.9728L32.0857 31.9142L59.3455 47.9723C59.7824 47.1684 59.9996 46.236 60 45.1833C60 45.1833 60 27.6068 59.9972 18.816" fill="#1B598E"/>
<path d="M58.4983 33.0621H56.3681V35.2286H54.2375V33.0621H52.1075V30.8963H54.2375V28.7302H56.3681V30.8963H58.4983V33.0621Z" fill="white"/>
<path d="M50.7254 33.0621H48.5954V35.2286H46.4652V33.0621H44.3351V30.8963H46.4652V28.7302H48.5954V30.8963H50.7254V33.0621Z" fill="white"/>
<path d="M40.0694 36.6169C38.4813 39.4808 35.4635 41.4162 32.0001 41.4162C28.5579 41.4162 25.5572 39.5051 23.961 36.6715C23.1592 35.2496 22.7381 33.6388 22.7397 31.9998C22.7397 26.7994 26.8859 22.5836 32.0001 22.5836C35.4201 22.5836 38.405 24.4709 40.0091 27.2755L48.1032 22.5361C44.886 16.889 38.8796 13.0898 32.0001 13.0898C21.7292 13.0898 13.4033 21.5563 13.4033 31.9998C13.4033 35.426 14.2997 38.639 15.8663 41.4104C19.0754 47.0874 25.0989 50.91 32.0001 50.91C38.914 50.91 44.9469 47.072 48.1514 41.3784L40.0694 36.6169Z" fill="white"/>
</svg>

