<svg width="35" height="35" viewBox="0 0 35 35" fill="none" xmlns="http://www.w3.org/2000/svg">
<g clip-path="url(#clip0)">
<path d="M17.1426 15.0013L17.4376 15.0028C20.8326 15.0028 24.146 14.6965 27.3443 14.1147L27.031 14.1628C29.6444 13.7681 32.1381 12.9106 34.3593 11.6428L34.2843 11.6822V15.0028C34.2843 15.9011 33.5182 16.7343 31.986 17.5024C30.0677 18.3891 27.9992 19.0006 25.8593 19.3136L25.7376 19.3282C23.004 19.7833 20.227 20.0094 17.4443 20.0034L17.1293 20.0019H17.146L16.846 20.0034C13.9126 20.0034 11.046 19.7569 8.26931 19.2888L8.55264 19.3282C6.3289 19.0115 4.17939 18.3784 2.18931 17.4542L2.30098 17.5024C0.768754 16.7343 0.00264323 15.9011 0.00264323 15.0028V11.6822C2.16797 12.9152 4.59525 13.7534 7.13931 14.1467L7.25764 14.1613C10.141 14.6965 13.456 15.0028 16.851 15.0028L17.1626 15.0013H17.146H17.1426ZM17.1426 30.0003L17.4376 30.0017C20.8326 30.0017 24.146 29.6955 27.3443 29.1136L27.031 29.1617C29.6444 28.7671 32.1381 27.9095 34.3593 26.6417L34.2843 26.6811V30.0017C34.2843 30.9001 33.5182 31.7333 31.986 32.5013C30.0677 33.3881 27.9992 33.9996 25.8593 34.3126L25.7376 34.3272C23.004 34.7822 20.227 35.0083 17.4443 35.0024L17.1293 35.0009H17.146L16.846 35.0024C13.9126 35.0024 11.046 34.7559 8.26931 34.2878L8.55264 34.3272C6.32904 34.0099 4.17961 33.377 2.18931 32.4532L2.30098 32.5013C0.767643 31.7333 0.000976562 30.9001 0.000976562 30.0017V26.6811C2.1663 27.9141 4.59358 28.7524 7.13764 29.1457L7.25598 29.1603C10.1393 29.6955 13.4543 30.0017 16.8493 30.0017L17.161 30.0003H17.1443H17.1426ZM17.1426 22.5001L17.4376 22.5015C20.8326 22.5015 24.146 22.1953 27.3443 21.6134L27.031 21.6615C29.6444 21.2668 32.1381 20.4093 34.3593 19.1415L34.2843 19.1809V22.5015C34.2843 23.3999 33.5182 24.2331 31.986 25.0011C30.0677 25.8879 27.9992 26.4994 25.8593 26.8124L25.7376 26.8269C23.004 27.282 20.227 27.5081 17.4443 27.5022L17.1293 27.5007H17.146L16.846 27.5022C13.9126 27.5022 11.046 27.2557 8.26931 26.7876L8.55264 26.8269C6.32904 26.5097 4.17961 25.8767 2.18931 24.953L2.30098 25.0011C0.767643 24.2331 0.000976562 23.3999 0.000976562 22.5015V19.1809C2.1663 20.4139 4.59358 21.2521 7.13764 21.6455L7.25598 21.6601C10.1393 22.1953 13.4543 22.5015 16.8493 22.5015L17.161 22.5001H17.1443H17.1426ZM17.1426 -0.000555827L17.4326 -0.00201416C20.3676 -0.00201416 23.2376 0.244444 26.016 0.714028L25.7326 0.674653C28.0743 1.01736 30.1743 1.65465 32.096 2.54861L31.9843 2.50049C33.5165 3.26854 34.2826 4.10174 34.2826 5.00007V7.49965C34.2826 8.39799 33.5165 9.23118 31.9843 9.99924C30.066 10.886 27.9975 11.4975 25.8576 11.8105L25.736 11.8251C23.0023 12.2801 20.2253 12.5062 17.4426 12.5003L17.1276 12.4988H17.1443L16.8443 12.5003C13.911 12.5003 11.0443 12.2538 8.26764 11.7857L8.55098 11.8251C6.32737 11.5079 4.17794 10.8749 2.18764 9.95111L2.29931 9.99924C0.768199 9.23118 0.00264323 8.39799 0.00264323 7.49965V5.00007C0.00264323 4.10174 0.768754 3.26854 2.30098 2.50049C4.21976 1.61354 6.28888 1.00201 8.42931 0.689236L8.55098 0.674653C11.388 0.202298 14.2715 -0.0233836 17.1593 0.000902507H17.1426V-0.000555827Z" fill="#699BF7"/>
</g>
<defs>
<clipPath id="clip0">
<rect width="35" height="35" fill="white"/>
</clipPath>
</defs>
</svg>
