<svg width="35" height="35" viewBox="0 0 35 35" fill="none" xmlns="http://www.w3.org/2000/svg">
<path d="M32.7075 24.1654V26.3554C32.7077 26.4606 32.6763 26.5632 32.6179 26.6483C32.5595 26.7334 32.477 26.7966 32.3825 26.8286L29.1325 27.9435C29.0624 27.9682 28.9877 27.9746 28.9148 27.9621C28.8419 27.9497 28.7729 27.9187 28.7137 27.8719C28.6543 27.8264 28.6058 27.7667 28.5721 27.6976C28.5385 27.6285 28.5206 27.552 28.52 27.4742V25.088L25.4725 25.7032V28.1304C25.4723 28.2506 25.431 28.3667 25.3563 28.4571C25.2816 28.5476 25.1786 28.6062 25.0662 28.6223L20.66 29.2625H20.5962C20.5345 29.2631 20.4733 29.2506 20.4162 29.226C20.359 29.2013 20.307 29.1648 20.2632 29.1187C20.2194 29.0727 20.1847 29.0178 20.1609 28.9574C20.1372 28.897 20.125 28.8322 20.125 28.7667V26.191L17.8512 26.2016H17.5175L15.2437 26.191V28.7667C15.2439 28.8321 15.2319 28.8969 15.2084 28.9574C15.1849 29.0179 15.1504 29.0728 15.1069 29.1191C15.0633 29.1654 15.0116 29.2022 14.9547 29.2272C14.8977 29.2523 14.8366 29.2652 14.775 29.2652H14.71L10.3037 28.6249C10.1916 28.6086 10.0889 28.5498 10.0144 28.4594C9.93998 28.369 9.89889 28.2531 9.89873 28.1331V25.6965L6.84998 25.0814V27.4676C6.8495 27.5453 6.83183 27.6217 6.7984 27.6908C6.76496 27.7598 6.71669 27.8196 6.65748 27.8653C6.59799 27.912 6.52879 27.9429 6.4557 27.9553C6.38262 27.9678 6.30778 27.9615 6.23748 27.9369L2.98748 26.822C2.89319 26.7897 2.81102 26.7264 2.75283 26.6414C2.69464 26.5563 2.66344 26.4538 2.66373 26.3488V24.1654L0.653734 23.4482C0.552286 23.8999 0.500276 24.3625 0.498734 24.8269C0.498734 30.5498 8.10123 34.9682 17.4987 35H17.5225C26.9187 34.9682 34.5225 30.5511 34.5225 24.8269C34.5227 24.4036 34.4808 23.9815 34.3975 23.5675L32.7075 24.1654Z" fill="#478CBF"/>
<path d="M2.13875 14.0162V22.9339L3.2725 23.3395C3.36569 23.3724 3.44675 23.4355 3.50419 23.52C3.56163 23.6045 3.59253 23.706 3.5925 23.8101V25.9975L5.91125 26.7929V24.4809C5.91136 24.4078 5.92665 24.3356 5.95603 24.2694C5.98541 24.2032 6.02816 24.1447 6.08124 24.098C6.13433 24.0514 6.19645 24.0176 6.26321 23.9993C6.32996 23.9809 6.39971 23.9783 6.4675 23.9918L10.4537 24.7991C10.561 24.8204 10.6578 24.8809 10.7274 24.97C10.7971 25.0591 10.8351 25.1712 10.835 25.2869V27.697L14.3038 28.1994V25.6939C14.3036 25.6285 14.3156 25.5636 14.3392 25.5031C14.3628 25.4427 14.3974 25.3877 14.4411 25.3415C14.4848 25.2953 14.5367 25.2587 14.5938 25.2339C14.6509 25.209 14.712 25.1964 14.7738 25.1968L17.6825 25.2087L20.59 25.1968C20.6518 25.1963 20.7131 25.2087 20.7703 25.2335C20.8276 25.2583 20.8796 25.2948 20.9234 25.341C20.9673 25.3873 21.002 25.4423 21.0257 25.5028C21.0493 25.5634 21.0614 25.6283 21.0613 25.6939V28.1994L24.53 27.697V25.2856C24.5294 25.1708 24.5664 25.0592 24.6349 24.9702C24.7033 24.8812 24.7988 24.8202 24.905 24.7978L28.8913 23.9904C28.9591 23.977 29.0289 23.9796 29.0957 23.998C29.1625 24.0163 29.2247 24.05 29.2779 24.0967C29.3311 24.1434 29.374 24.2018 29.4035 24.268C29.433 24.3342 29.4485 24.4064 29.4487 24.4796V26.7876L31.7675 25.9922V23.8088C31.7674 23.7048 31.7981 23.6034 31.8553 23.519C31.9125 23.4345 31.9933 23.3713 32.0863 23.3382L32.8587 23.0625V14.0162H32.88C33.6426 12.9795 34.3504 11.8988 35 10.7789C34.1071 9.20942 33.0555 7.74786 31.8637 6.42016C30.7912 6.9947 29.7515 7.63565 28.75 8.33971C28.2456 7.83931 27.7116 7.37351 27.1513 6.94512C26.5986 6.51791 26.0249 6.1223 25.4325 5.75998C25.5986 4.40953 25.6954 3.05049 25.7225 1.68889C24.2397 0.923775 22.6731 0.35649 21.0588 0C20.4175 1.15696 19.8395 2.35202 19.3275 3.57928C18.7267 3.47855 18.1195 3.42714 17.5113 3.4255H17.4888C16.8801 3.42706 16.2724 3.47847 15.6712 3.57928C15.1597 2.35181 14.5816 1.15673 13.94 0C12.326 0.356926 10.7598 0.924659 9.2775 1.69021C9.30403 3.05184 9.40084 4.41091 9.5675 5.76131C8.97461 6.12347 8.40045 6.51908 7.8475 6.94645C7.28777 7.37459 6.7542 7.83995 6.25 8.33971C5.24881 7.63582 4.20953 6.99487 3.1375 6.42016C1.94536 7.74779 0.893304 9.20936 0 10.7789C0.648771 11.8992 1.35569 12.9804 2.1175 14.0175L2.13875 14.0162Z" fill="#478CBF"/>
<path d="M13.0775 18.2941C13.0778 19.0122 12.8772 19.7143 12.5012 20.3116C12.1252 20.9088 11.5906 21.3744 10.9651 21.6495C10.3396 21.9245 9.65124 21.9967 8.98705 21.8569C8.32286 21.717 7.71268 21.3714 7.23369 20.8638C6.75469 20.3562 6.42839 19.7094 6.29604 19.0051C6.16369 18.3008 6.23124 17.5707 6.49015 16.9071C6.74906 16.2435 7.18769 15.6763 7.75059 15.2771C8.31348 14.8779 8.97536 14.6647 9.65251 14.6644C10.1021 14.6643 10.5474 14.758 10.9628 14.9403C11.3783 15.1226 11.7558 15.3899 12.0738 15.727C12.3919 16.064 12.6442 16.4642 12.8164 16.9047C12.9886 17.3451 13.0773 17.8173 13.0775 18.2941Z" fill="white"/>
<path d="M12.25 18.5115C12.25 18.9884 12.1166 19.4546 11.8668 19.8512C11.6169 20.2477 11.2618 20.5568 10.8464 20.7393C10.4309 20.9218 9.97371 20.9696 9.53265 20.8765C9.09158 20.7835 8.68644 20.5538 8.36845 20.2166C8.05046 19.8794 7.83391 19.4497 7.74617 18.9819C7.65844 18.5142 7.70347 18.0293 7.87556 17.5887C8.04766 17.1481 8.33909 16.7715 8.71301 16.5065C9.08692 16.2416 9.52653 16.1001 9.97623 16.1001C10.2749 16.0998 10.5707 16.1619 10.8468 16.283C11.1228 16.404 11.3735 16.5816 11.5848 16.8056C11.796 17.0296 11.9634 17.2956 12.0776 17.5883C12.1917 17.881 12.2503 18.1947 12.25 18.5115Z" fill="#414042"/>
<path d="M17.7075 22.2578C17.4289 22.2715 17.1564 22.1676 16.9498 21.9689C16.7432 21.7701 16.6192 21.4927 16.605 21.1973V17.8526C16.6311 17.5617 16.7586 17.2916 16.9625 17.0951C17.1663 16.8985 17.432 16.7896 17.7075 16.7896C17.983 16.7896 18.2487 16.8985 18.4525 17.0951C18.6564 17.2916 18.7838 17.5617 18.81 17.8526V21.1959C18.7954 21.4915 18.6712 21.7689 18.4644 21.9676C18.2576 22.1663 17.985 22.2702 17.7062 22.2565" fill="white"/>
<path d="M22.3387 18.2941C22.3385 19.0122 22.5391 19.7143 22.9151 20.3116C23.2911 20.9088 23.8256 21.3744 24.4511 21.6495C25.0766 21.9245 25.765 21.9967 26.4292 21.8569C27.0934 21.717 27.7036 21.3714 28.1826 20.8638C28.6616 20.3562 28.9879 19.7094 29.1202 19.0051C29.2526 18.3008 29.185 17.5707 28.9261 16.9071C28.6672 16.2435 28.2286 15.6763 27.6657 15.2771C27.1028 14.8779 26.4409 14.6647 25.7637 14.6644C25.3141 14.6643 24.8689 14.758 24.4534 14.9403C24.038 15.1226 23.6605 15.3899 23.3424 15.727C23.0244 16.064 22.7721 16.4642 22.5998 16.9047C22.4276 17.3451 22.3389 17.8173 22.3387 18.2941Z" fill="white"/>
<path d="M23.1638 18.5115C23.164 18.9882 23.2975 19.454 23.5474 19.8502C23.7973 20.2464 24.1524 20.5551 24.5678 20.7373C24.9831 20.9194 25.4401 20.9669 25.8808 20.8737C26.3216 20.7804 26.7264 20.5506 27.044 20.2134C27.3617 19.8762 27.5779 19.4466 27.6653 18.9791C27.7528 18.5115 27.7075 18.0269 27.5353 17.5867C27.3631 17.1464 27.0716 16.7702 26.6978 16.5056C26.3239 16.241 25.8845 16.0999 25.435 16.1001C25.1365 16.1001 24.841 16.1625 24.5653 16.2837C24.2895 16.405 24.039 16.5826 23.8281 16.8066C23.6172 17.0305 23.4499 17.2964 23.3359 17.5889C23.2219 17.8815 23.1634 18.195 23.1638 18.5115Z" fill="#414042"/>
</svg>
