<svg width="150" height="100" viewBox="0 0 150 100" fill="none" xmlns="http://www.w3.org/2000/svg">
<path d="M45.0578 99.1024C41.827 97.6784 37.3254 93.3546 35.7367 90.1494C32.7147 84.0527 32.0538 81.2802 32.0863 74.8354C32.1169 68.7679 32.8767 64.8432 34.6047 61.8272L35.3569 60.5144L33.8696 61.5861C33.0516 62.1755 31.6466 63.8204 30.7473 65.2413C28.6951 68.4843 27.4672 69.6019 26.3184 69.2728C25.8259 69.1317 25.4326 69.2383 25.4326 69.5128C25.4326 70.3689 22.886 72.1784 21.6812 72.1784C20.6964 72.1784 20.5263 71.9582 20.5263 70.6828C20.5263 69.8602 20.838 68.9536 21.2191 68.6681C21.6001 68.3827 22.1836 67.1129 22.5156 65.8463C22.8477 64.5797 23.6413 62.4475 24.2793 61.1082C25.3037 58.9573 25.3255 58.802 24.4656 59.7797C23.9301 60.3886 23.4836 61.086 23.4735 61.3296C23.4367 62.2149 22.702 62.7745 21.187 63.071C19.7473 63.3528 19.6009 63.2671 19.0777 61.8362C18.6232 60.5933 18.6611 59.9837 19.2755 58.6566C19.6936 57.7535 20.0346 56.9892 20.0334 56.958C20.0322 56.9269 19.2368 56.8643 18.2658 56.819C16.0743 56.7167 16.0305 56.6751 15.9396 54.6067C15.8744 53.1232 15.73 52.933 14.7613 53.0545C14.1009 53.1374 13.6552 52.9595 13.652 52.6117C13.649 52.292 13.5153 51.314 13.3549 50.4385C13.104 49.0699 13.2935 48.6097 14.7059 47.1579C15.6095 46.2291 17.4543 44.9864 18.8055 44.3963C20.1567 43.8063 20.7103 43.4257 20.0357 43.5506C19.361 43.6756 17.9259 43.9176 16.8465 44.0886C14.58 44.4476 12.5968 45.2706 10.3638 46.7788L8.78755 47.8435L8.0333 46.5271C6.99753 44.7193 7.07711 44.1228 8.56736 42.5243C10.0874 40.8939 12.9457 39.4931 15.7885 38.9855L17.8277 38.6214L16.1105 38.5826C12.7578 38.5069 7.90019 41.1834 5.81402 44.256C4.74586 45.8293 4.37072 46.0525 2.79554 46.0525C1.21914 46.0525 0.930254 45.8802 0.458167 44.658C-0.339554 42.5927 -0.271111 42.4052 2.09256 40.1789C4.42867 37.9784 7.19123 36.5106 10.7135 35.5988L12.9213 35.0272L9.29295 35.0776L5.66457 35.1281L4.93588 33.4792C4.22574 31.8722 4.24237 31.7972 5.5896 30.5279C7.13127 29.0756 8.03649 28.9443 10.3895 29.8317L11.9965 30.4377L11.7904 29.1704C11.4606 27.1422 12.1568 24.783 13.4222 23.6409C14.832 22.3685 16.7991 22.1825 16.4121 23.3583C16.2718 23.7845 16.0031 24.731 15.8149 25.4617C15.4754 26.7802 15.4805 26.784 16.4967 25.9718C17.0598 25.5217 17.7552 25.2844 18.042 25.4444C18.3377 25.6093 18.5599 25.3884 18.555 24.9343C18.5418 23.6892 17.246 18.5262 16.5758 17.0481C16.0427 15.8724 15.8992 14.8146 16.0613 13.2547C16.0883 12.995 16.712 12.8455 17.4473 12.9226C18.416 13.0241 19.0894 13.5505 19.8924 14.834C21.122 16.7994 21.2763 16.2662 20.4948 12.7524C19.7889 9.5786 19.1458 8.10056 17.4741 5.8103C16.6958 4.74417 16.0005 3.19979 15.9288 2.37845C15.8127 1.04884 15.9332 0.885084 17.0267 0.885084C17.7023 0.885084 18.8013 1.33344 19.4691 1.88143C20.4643 2.69816 20.6263 2.73505 20.3676 2.08609C19.9866 1.13053 21.0096 0.676326 22.687 1.05631C24.1381 1.38503 26.7634 4.85893 27.4672 7.38199C27.8207 8.64894 28.1956 9.16358 28.6505 9.00607C29.0849 8.85562 29.4112 9.2127 29.5892 10.0335C29.7393 10.7254 30.1514 12.11 30.5051 13.1104C30.9348 14.3261 30.9985 15.2806 30.6972 15.9887C29.7768 18.1517 28.8539 24.1937 29.1487 26.1262C29.5976 29.0685 31.2839 33.047 32.6432 34.3706C33.6237 35.3255 34.1345 35.4883 35.5161 35.2859C36.8605 35.089 37.3423 35.2279 37.9266 35.9808C38.8581 37.181 38.4699 37.5634 37.2946 36.6035C36.7994 36.1991 35.8495 35.8682 35.1836 35.8682C33.5395 35.8682 33.5756 37.6503 35.245 38.9034C35.9196 39.4098 36.2508 39.8298 35.9809 39.8366C35.054 39.8603 32.5053 37.601 33.1753 37.3495C33.6072 37.1874 33.2682 36.5782 32.0926 35.4038C29.9946 33.3078 28.2121 30.2502 28.5816 29.3814C28.7391 29.0109 28.6432 28.8556 28.3559 29.0158C27.7243 29.3681 28.1747 23.3362 29.1546 18.3191C29.7186 15.431 29.743 14.2701 29.278 12.4517C28.9591 11.2049 28.5154 10.1849 28.2919 10.1849C27.9028 10.1849 27.8361 11.7442 27.7807 22.141C27.7611 25.8279 27.6766 26.378 27.3728 24.7979C27.0887 23.321 27.0174 23.9514 27.097 27.2334C27.2188 32.2501 28.2435 34.9832 30.9771 37.5817C32.6363 39.159 35.4679 40.4981 36.2372 40.0691C36.4892 39.9285 37.8443 40.1214 39.2485 40.4978C42.5009 41.3695 48.4027 41.3732 52.9685 40.5064C55.9997 39.9309 56.6282 39.9216 57.2066 40.4437C57.785 40.9657 57.7751 41.2957 57.1393 42.6691C56.7288 43.5559 55.8153 44.9649 55.1094 45.8001C54.1745 46.9064 53.8679 47.7348 53.9804 48.8508L54.1348 50.3829L57.6626 46.7325C61.8402 42.4097 63.6105 39.6425 62.878 38.5806C61.9369 37.2166 59.3116 36.7319 54.2679 36.9909C48.6638 37.2787 45.8903 36.7508 44.7496 35.179C44.132 34.3283 43.8037 34.1933 43.2893 34.5787C42.2352 35.3682 43.358 36.7127 45.9286 37.7389C47.7825 38.4791 48.8291 38.5966 51.774 38.3956C53.7841 38.2584 55.3613 38.3267 55.3613 38.5509C55.3613 39.0741 53.1142 39.5781 52.4454 39.205C52.1602 39.046 51.9269 39.1564 51.9269 39.4505C51.9269 40.2382 44.4006 39.6683 41.3641 38.6505C40.0228 38.2011 39.0147 37.7399 39.124 37.6257C39.2333 37.5116 38.9573 36.7805 38.5107 36.001C37.5454 34.3161 37.518 34.097 38.2734 34.097C38.5895 34.097 39.2421 33.7752 39.7238 33.3817C40.53 32.7232 40.6624 32.7232 41.392 33.3817C42.3176 34.2172 42.7114 34.2668 43.4103 33.636C43.7643 33.3165 44.4062 33.6224 45.5011 34.6323L47.081 36.0897H53.552C61.5101 36.0897 63.7027 36.7229 63.7027 39.0212C63.7027 39.8059 63.0576 41.6593 62.2691 43.1398C60.7573 45.9786 58.8813 51.3555 59.925 49.8583C62.9558 45.5106 67.9743 41.0041 70.6973 40.1849C71.0054 40.0922 71.0825 39.5446 70.8867 38.8405C70.6435 37.9656 70.2816 37.68 69.5141 37.7568C68.2803 37.8802 67.7976 37.0377 68.7053 36.3455C71.7316 34.0378 73.3368 33.1825 74.2333 33.4C74.7828 33.5332 75.8481 33.6449 76.6007 33.6483C77.5296 33.6524 78.5933 34.2121 79.9125 35.3908C81.9887 37.2461 82.391 38.2176 80.9973 38.0106C79.9424 37.854 78.9108 38.3964 78.9159 39.1049C78.9179 39.395 79.7593 40.0649 80.7856 40.5937C83.6488 42.0688 86.8346 44.6158 88.6504 46.8817L90.2934 48.9316L89.9396 46.9389C89.7449 45.8429 88.84 43.6061 87.9286 41.9683C85.9695 38.4476 85.9296 38.0792 87.3755 36.8736C89.0105 35.5104 91.8066 34.9879 97.482 34.9852C102.558 34.9827 102.56 34.9823 104.023 33.5686C105.192 32.4395 105.652 32.2485 106.305 32.6206C106.9 32.9595 107.403 32.9217 108.146 32.482C109.02 31.9651 109.394 31.9791 110.727 32.5792C112.315 33.2942 112.328 33.56 110.851 35.1771C110.134 35.9623 110.194 35.9564 111.55 35.1084C113.055 34.1666 115.588 34.1639 116.267 35.1034C116.636 35.6152 118.769 32.4518 119.941 29.6545C121.037 27.0366 121.059 19.5884 119.977 16.9713C119.348 15.4472 119.304 14.5721 119.729 11.9896C120.365 8.1185 121.016 7.83833 120.576 11.6243C120.371 13.3948 120.509 15.5452 120.96 17.5927C121.442 19.7804 121.588 22.4433 121.423 26.0062C121.141 32.1132 121.226 31.5592 120.622 31.2222C120.355 31.0734 120.25 31.2183 120.389 31.5441C120.633 32.1201 117.802 35.8687 117.123 35.8687C116.936 35.8687 116.891 36.2418 117.023 36.6979C117.189 37.2688 116.779 37.8383 115.709 38.5262C114.282 39.4432 114.219 39.5838 114.941 40.2357C115.558 40.7922 115.912 40.8367 116.578 40.4413C117.045 40.1636 117.372 39.7186 117.304 39.4525C117.237 39.1863 117.505 38.9684 117.9 38.9684C118.296 38.9684 118.859 38.5643 119.151 38.0704C119.444 37.5765 119.846 37.2629 120.045 37.3737C120.243 37.4844 120.438 37.2409 120.478 36.8325C120.517 36.4242 121.137 34.5956 121.855 32.7689C122.915 30.0739 123.192 28.4878 123.325 24.3554C123.488 19.2847 123.487 19.2789 123.072 23.0269C122.842 25.0971 122.421 27.3887 122.136 28.1193C121.672 29.3094 121.648 29.2429 121.912 27.4811C122.924 20.7108 122.787 12.2698 121.632 10.2036C121.11 9.26958 122.322 4.50671 123.42 3.17913C124.948 1.332 126.755 0.314623 127.917 0.647358C129.12 0.992155 129.237 2.06385 128.205 3.29511C127.809 3.76786 127.485 4.36301 127.485 4.61763C127.485 4.87228 128.244 4.06313 129.172 2.81952C130.935 0.456857 131.667 0 133.691 0C134.731 0 134.86 0.146936 134.566 0.996344C134.376 1.54433 134.055 2.09232 133.852 2.2141C133.065 2.68579 130.03 8.27143 129.761 9.74203C129.606 10.5945 129.338 12.6771 129.166 14.3704L128.854 17.4487L130.175 16.031C131.428 14.687 133.472 14.1265 134.049 14.9685C134.182 15.164 133.752 16.7083 133.093 18.4004C132.434 20.0925 131.696 22.1144 131.453 22.8937C131.038 24.2276 131.069 24.2794 131.979 23.7793C132.8 23.3284 133.089 23.4062 133.895 24.2936L134.844 25.339V23.9615C134.844 22.2236 135.964 22.1298 137.153 23.7681C137.711 24.5364 138.001 25.761 137.977 27.2551L137.942 29.5579L139.983 28.7431C141.988 27.9423 142.059 27.9441 144.076 28.845C145.205 29.3492 146.13 29.8903 146.13 30.0475C146.131 30.2047 145.635 31.1802 145.027 32.2153L143.923 34.0973L140.242 34.1458C136.96 34.1891 136.779 34.2332 138.57 34.5537C143.311 35.4021 147.275 37.8119 149.135 40.9764C150.223 42.8271 150.235 42.9555 149.449 44.4417C148.654 45.9479 148.592 45.9734 146.891 45.5022C145.932 45.2366 145.147 44.8362 145.147 44.6124C145.147 44.3887 144.446 43.3241 143.589 42.2466C141.896 40.1192 137.177 37.6285 134.888 37.6546C133.972 37.665 134.326 37.8901 136.159 38.4619C137.558 38.8979 139.71 40.0007 140.943 40.9126C142.992 42.4276 143.185 42.7397 143.185 44.5335C143.185 45.6132 143.102 46.4965 143.002 46.4965C142.901 46.4965 141.752 46.0704 140.447 45.5496C137.865 44.5187 133.324 43.4376 131.47 43.4125C130.486 43.3992 130.691 43.6548 132.788 45.0553C135.595 46.9296 137.627 49.4803 138.091 51.71C138.489 53.625 136.997 55.6356 135.311 55.4568C134.701 55.3922 133.803 55.6654 133.315 56.0641C132.827 56.4627 132.088 56.6713 131.673 56.5276C130.781 56.2186 130.741 56.5319 131.443 58.3498C131.855 59.4168 131.804 59.9933 131.202 61.043C130.501 62.2664 130.308 62.3451 128.894 61.9792C128.046 61.7595 127.319 61.5239 127.279 61.4554C127.239 61.387 126.92 60.8161 126.57 60.1867C126.22 59.5573 125.395 58.4614 124.737 57.7512L123.54 56.4601L124.507 58.0103C125.039 58.863 126.143 61.2542 126.959 63.3242C127.775 65.3941 128.902 67.4272 129.462 67.8423C130.434 68.5623 130.443 68.6485 129.654 69.7356C128.728 71.0116 127.502 70.9281 125.731 69.4685C125.171 69.0071 124.581 68.7493 124.419 68.8955C123.646 69.5927 121.972 68.3459 120.619 66.0655C119.796 64.6794 118.37 62.7482 117.45 61.774L115.777 60.0027L116.755 63.3239C117.573 66.1011 117.701 67.6604 117.534 72.8445C117.424 76.2542 117.052 80.0403 116.708 81.2581C114.76 88.1439 112.091 93.2457 109.275 95.4655C107.208 97.0949 103.557 98.7495 102.029 98.7495C98.9511 98.7495 97.0928 97.22 97.7839 95.2548C98.277 93.8526 99.7692 93.857 101.138 95.2649C102.231 96.3887 102.539 96.4871 103.711 96.0848C105.497 95.472 107.759 93.9884 108.303 93.0728C108.691 92.4205 108.434 92.3287 106.217 92.3287C104.015 92.3287 103.688 92.2141 103.688 91.4431C103.688 90.7113 104.108 90.5139 106.102 90.3073C110.649 89.8362 113.256 85.64 113.256 78.7935C113.256 74.9148 111.853 69.2942 109.95 65.547C108.897 63.4737 109.007 63.5366 107.607 64.2131C106.48 64.7571 106.252 64.7015 104.935 63.5631C104.143 62.8783 103.406 61.7972 103.298 61.1605L103.1 60.003L103.026 61.2094C102.975 62.0408 102.531 62.6124 101.597 63.0483C100.348 63.6316 100.137 63.5996 98.8988 62.6381C98.16 62.0646 97.5556 61.1795 97.5556 60.6713V59.7471L96.4826 60.6494L95.4095 61.5517L94.2747 60.5895C93.6506 60.0602 93.1366 59.114 93.1324 58.4867C93.1283 57.8594 92.9262 57.0628 92.6834 56.7165C92.3558 56.2493 92.1065 56.5404 91.7174 57.8446C90.962 60.3764 89.0701 61.756 83.6779 63.7067C81.0599 64.6538 78.1416 65.9632 77.1927 66.6164L75.4674 67.8041L73.6324 66.9146C72.6231 66.4253 70.2519 65.4961 68.363 64.8496C61.9376 62.6505 58.305 60.1159 58.305 57.8314C58.305 57.4427 58.1283 57.1248 57.9125 57.1248C57.1136 57.1248 56.3424 58.2221 56.3424 59.3588C56.3424 60.7374 54.8261 62.1383 53.5701 61.92C53.0846 61.8356 52.409 61.2701 52.0689 60.6634C51.7288 60.0567 51.4473 59.8225 51.4433 60.1429C51.4393 60.4634 51.6483 61.0835 51.9077 61.521C52.6178 62.7185 50.5352 64.3561 48.8016 63.9634C47.6759 63.7084 47.5066 63.4367 47.4765 61.8371C47.4497 60.4067 47.3493 60.198 47.0204 60.8887C46.7885 61.3758 46.5832 62.3061 46.5642 62.956C46.5392 63.8143 46.0534 64.4033 44.7889 65.1087C43.1179 66.0408 43.0095 66.0483 42.0874 65.2951C41.5591 64.8636 41.0477 64.5923 40.9511 64.6923C40.6273 65.0272 38.7748 70.5955 37.8705 73.9516C37.3479 75.8911 36.9729 78.9307 36.969 81.2582C36.9628 85.0351 37.0454 85.3514 38.5501 87.3071C40.4163 89.7325 42.8564 91.2217 44.9641 91.2217C46.7162 91.2217 47.3573 91.8716 46.5119 92.791C45.8273 93.5355 43.7256 93.6301 41.8871 92.9993C40.7197 92.5987 40.6573 92.6339 41.1281 93.4279C41.4102 93.9037 42.6858 95.0141 43.9627 95.8955C45.9036 97.2351 46.5609 97.4577 47.9704 97.2526C48.9556 97.1092 50.0773 96.5351 50.6689 95.8714C51.6243 94.7994 51.7435 94.7751 52.7853 95.4392C54.116 96.2875 54.1497 96.8827 52.941 98.1901C51.0453 100.241 48.3463 100.554 45.058 99.1043L45.0578 99.1024ZM52.0567 97.8182C52.7156 97.0906 52.7902 96.7177 52.3687 96.2594C51.914 95.7649 51.6479 95.8484 50.8834 96.7255C48.8355 99.0753 45.1528 98.3568 41.5805 94.9106C35.977 89.5046 34.6572 82.4301 37.3855 72.4242C38.7409 67.4526 41.3921 60.9312 43.3359 57.7872C44.2753 56.2677 44.3434 55.8677 43.8149 54.973L43.1988 53.93L42.106 54.9163C40.2983 56.5479 37.1673 63.1621 35.6252 68.6074C34.4787 72.6559 34.1585 74.7954 34.0969 78.8211C34.0267 83.3998 34.1565 84.2487 35.3842 87.2346C36.9527 91.0497 39.665 94.7944 42.2021 96.6477C45.7726 99.2559 50.2715 99.7904 52.0569 97.8186L52.0567 97.8182ZM106.188 96.6034C109.323 94.5415 111.271 92.4849 112.768 89.656C114.745 85.9224 115.277 83.3639 115.304 77.4713C115.342 68.828 113.264 62.0515 108.417 55.02C106.969 52.9194 106.588 52.747 106.149 53.9943C105.983 54.4658 105.527 54.9142 105.135 54.9907C104.592 55.0968 104.779 55.6034 105.922 57.1226C112.178 65.4391 115.477 76.8626 113.764 84.2802C113.436 85.7 113.049 86.7541 112.903 86.6227C112.758 86.4914 112.165 87.0188 111.585 87.7948C110.177 89.6811 107.567 91.2127 105.699 91.2495C104.297 91.277 104.259 91.3157 105.222 91.7364C106.916 92.4767 110.5 90.8099 111.726 88.7116C112.272 87.7772 112.729 87.1928 112.741 87.413C112.784 88.21 109.374 93.2405 108.019 94.3794C106.316 95.8104 103.831 96.9762 102.483 96.9762C101.93 96.9762 101.028 96.5704 100.479 96.0744C99.4408 95.1377 98.5341 95.2504 98.5341 96.3161C98.5341 98.2233 103.445 98.4075 106.188 96.6031L106.188 96.6034ZM45.8207 92.3488C46.7416 91.7279 46.7368 91.7149 45.6771 91.9558C43.8805 92.3642 42.1819 91.7389 39.8753 89.8199C37.544 87.8804 37.2836 87.8864 38.4108 89.8536C39.213 91.2537 41.3875 92.339 44.5942 92.9397C44.745 92.9679 45.297 92.7021 45.8208 92.3488L45.8207 92.3488ZM33.4931 76.6066C33.9049 71.1679 36.2499 63.4549 38.9891 58.5285C40.756 55.3512 41.0052 54.6056 40.4642 54.1173C39.4061 53.1623 34.9181 55.2122 32.3344 57.8304C30.2309 59.9621 26.4119 66.4959 26.4119 67.963C26.4119 69.2824 27.5748 68.4137 29.2293 65.8583C30.9261 63.2373 35.0084 59.3364 36.055 59.3364C36.4729 59.3364 36.2209 60.2997 35.2728 62.3255C33.4841 66.1473 32.7989 69.2427 32.6999 73.9495C32.5319 81.9295 32.9775 83.4209 33.4935 76.6064L33.4931 76.6066ZM116.955 69.5516C116.651 65.5855 115.598 61.2859 114.429 59.2459C114.039 58.5653 113.924 58.0085 114.174 58.0085C114.962 58.0085 119.667 62.9477 121.174 65.3575C122.526 67.5203 124.048 68.7592 124.048 67.6972C124.048 67.4397 123.056 65.3643 121.844 63.0852C118.365 56.5421 113.295 52.4571 109.835 53.4096L108.411 53.8016L110.34 56.6799C113.579 61.5106 116.057 69.6001 116.24 75.9426L116.317 78.5995L116.778 75.9426C117.032 74.4813 117.111 71.6054 116.954 69.5518L116.955 69.5516ZM24.1023 69.8537C24.7476 69.0622 25.5691 67.7171 25.9281 66.8647C28.0962 61.7156 32.0281 56.4717 34.9101 54.8855C35.8825 54.3504 36.1632 54.0255 35.654 54.0245C35.2043 54.0235 34.7526 53.7962 34.6503 53.5192C34.3294 52.6503 30.2409 54.6188 28.275 56.5888C25.8877 58.9809 24.6121 61.3075 23.6781 64.9732C23.2579 66.6223 22.5976 68.413 22.2108 68.9524C20.4743 71.3742 22.195 72.1939 24.1027 69.8536L24.1023 69.8537ZM129.118 69.3325C129.265 68.985 129.055 68.4529 128.651 68.15C127.949 67.6245 126.61 65.1757 126.253 63.7649C125.209 59.644 122.416 55.8531 118.851 53.716C116.447 52.2754 116.051 52.1695 114.879 52.6518L113.576 53.1873L115.027 53.9835C117.505 55.3439 120.462 58.9909 123.067 63.9014C125.384 68.2688 126.84 69.964 128.275 69.964C128.591 69.964 128.97 69.6797 129.118 69.3321L129.118 69.3325ZM79.4016 64.4899C80.616 63.914 82.4926 63.1894 83.572 62.8797C88.6167 61.432 91.1768 59.2153 91.1768 56.2954C91.1768 54.2716 92.4525 54.5616 93.8865 56.9112C94.6874 58.2236 94.6901 58.2164 94.4598 55.3513C94.2569 52.8268 92.3292 47.5855 91.1469 46.3434C90.9517 46.1383 90.9088 47.2841 91.0516 48.8896C91.1944 50.4952 91.1809 51.8088 91.0216 51.8088C90.8624 51.8088 90.2863 50.8991 89.7413 49.7872C89.1964 48.6754 87.3136 46.4688 85.5574 44.8835C82.9472 42.5277 82.1609 42.0531 81.2509 42.2844C80.4006 42.5005 80.3095 42.4608 80.8655 42.1162C81.4533 41.7518 81.244 41.5332 79.7773 40.9801C78.7785 40.6034 77.7333 40.2953 77.4548 40.2953C77.1763 40.2953 76.9485 40.096 76.9485 39.8524C76.9485 39.6089 77.1544 39.4096 77.406 39.4096C77.6577 39.4096 77.999 39.0246 78.1645 38.5541C78.3299 38.0836 79.0623 37.5096 79.7921 37.2785L81.1188 36.8583L79.8365 36.3966C79.1312 36.1427 78.4206 35.6207 78.2574 35.2368C77.8008 34.163 76.5818 34.3904 76.6592 35.5349C76.6962 36.0829 76.4628 37.0044 76.1404 37.5827C75.818 38.161 75.6708 38.9083 75.8132 39.2433C75.9655 39.6015 75.7536 39.8524 75.2986 39.8524C74.2862 39.8524 72.9569 35.9717 73.5921 34.8707C74.216 33.7893 73.2317 33.8661 72.1736 34.9814C71.7115 35.4685 71.0783 35.8671 70.7666 35.8671C70.4548 35.8671 69.9249 36.166 69.589 36.5313C69.0791 37.0858 69.1481 37.1955 70.0069 37.1955C70.6441 37.1955 71.3137 37.6807 71.766 38.4703C72.1678 39.1714 72.8358 39.8626 73.2505 40.0063C73.6653 40.1499 73.9872 40.5228 73.9659 40.8349C73.9355 41.2793 73.8735 41.2823 73.6797 40.8488C73.5436 40.5443 73.1064 40.2952 72.7082 40.2952C72.2858 40.2952 72.13 40.5083 72.3342 40.8065C72.5473 41.1176 72.4692 41.1977 72.1347 41.0111C70.3236 40.0009 63.2586 45.6599 60.8104 50.0819C60.0305 51.4905 59.258 52.5216 59.0938 52.3734C58.57 51.9006 58.8145 48.9902 59.5305 47.176C59.9112 46.2111 60.1223 45.331 59.9996 45.2202C59.8768 45.1094 59.7714 45.2014 59.7654 45.4246C59.7594 45.6479 59.2987 46.3288 58.7416 46.9376C58.1845 47.5465 57.8733 47.7458 58.0501 47.3804C58.6265 46.1896 55.3238 49.7643 54.0305 51.7311C52.5425 53.9939 51.9083 58.98 52.8965 60.6468C53.4881 61.6445 53.5099 61.6468 54.4379 60.8092C55.2302 60.0941 55.2965 59.7457 54.8567 58.6072C54.1977 56.901 54.8988 52.6575 56.3181 49.7614C57.7709 46.7971 58.0066 47.5766 56.6089 50.7231C55.5172 53.1806 55.1441 55.3431 55.3518 58.0084C55.4063 58.7084 55.5376 58.8712 55.7087 58.4512C56.3897 56.7795 58.795 55.4332 58.795 56.7237C58.795 57.938 60.5014 60.2487 62.1676 61.291C63.1732 61.92 66.3031 63.2446 69.1228 64.2347C71.9426 65.2247 74.4579 66.2203 74.7126 66.447C74.9989 66.702 75.5602 66.6072 76.1845 66.1983C76.7394 65.8348 78.187 65.0662 79.4013 64.4903L79.4016 64.4899ZM74.4909 63.0957C73.9863 62.547 74.0593 62.4363 74.9259 62.4363C75.4986 62.4363 75.9673 62.6238 75.9673 62.853C75.9673 63.6202 75.1037 63.7621 74.4908 63.0957H74.4909ZM72.3693 63.0267C71.8048 62.5172 72.012 61.9935 72.7782 61.9935C73.1829 61.9935 73.5141 62.2924 73.5141 62.6577C73.5141 63.3492 72.9338 63.5363 72.3693 63.0267L72.3693 63.0267ZM76.5397 62.8791C76.7866 62.2105 77.5756 62.1415 77.8071 62.7684C77.9196 63.0728 77.6436 63.3219 77.1938 63.3219C76.7441 63.3219 76.4497 63.1227 76.5397 62.8791ZM78.6867 62.4669C78.3238 61.937 79.2468 61.412 79.9003 61.7765C80.449 62.0826 80.0888 62.8791 79.4017 62.8791C79.1637 62.8791 78.8419 62.6936 78.6867 62.4669ZM70.0795 61.9935C70.0795 61.7499 70.4107 61.5507 70.8154 61.5507C71.2202 61.5507 71.5514 61.7499 71.5514 61.9935C71.5514 62.237 71.2202 62.4363 70.8154 62.4363C70.4107 62.4363 70.0795 62.237 70.0795 61.9935ZM68.3421 61.5212C68.1643 61.2615 68.1365 60.9426 68.2805 60.8127C68.632 60.4955 69.5889 61.0544 69.5889 61.5768C69.5889 62.1427 68.7419 62.105 68.3421 61.5212L68.3421 61.5212ZM80.8734 61.5507C80.8734 61.3071 81.2046 61.1078 81.6093 61.1078C82.0141 61.1078 82.3453 61.3071 82.3453 61.5507C82.3453 61.7942 82.0141 61.9935 81.6093 61.9935C81.2046 61.9935 80.8734 61.7942 80.8734 61.5507ZM66.2015 61.134C65.7135 60.8618 65.7 60.6972 66.145 60.449C66.4672 60.2693 66.9516 60.3215 67.2214 60.565C67.8608 61.1421 67.0385 61.6008 66.2015 61.134V61.134ZM83.6406 61.2434C83.088 60.7447 83.304 60.2222 84.0628 60.2222C84.4675 60.2222 84.7987 60.4097 84.7987 60.6388C84.7987 61.1972 84.0325 61.5971 83.6406 61.2434L83.6406 61.2434ZM78.692 60.7036C78.1816 59.9582 78.9036 59.1528 79.5551 59.7408C79.9391 60.0875 79.9391 60.3569 79.5551 60.7036C79.171 61.0502 78.9294 61.0502 78.692 60.7036ZM64.3925 60.0557C63.9826 59.0915 64.2695 58.8326 65.1831 59.3422C65.7442 59.6552 65.7714 59.8593 65.3077 60.2778C64.8439 60.6963 64.6443 60.6479 64.3925 60.0557L64.3925 60.0557ZM73.9319 60.3685C73.4874 60.2619 72.9936 59.737 72.8346 59.2021C72.4121 57.7797 72.4681 50.8359 72.9003 51.0706C73.1027 51.1805 73.3008 49.8125 73.3406 48.0305C73.4303 44.0132 74.2129 41.6597 75.4316 41.7425C76.026 41.7829 76.2385 42.0622 76.083 42.5988C75.9561 43.0367 76.1031 43.3951 76.4097 43.3951C76.7416 43.3951 76.874 43.8587 76.737 44.5409C76.5624 45.4096 76.6788 45.6272 77.218 45.4405C77.6092 45.305 77.9293 45.3872 77.9293 45.6231C77.9293 45.859 77.695 46.052 77.4086 46.052C77.0714 46.052 76.996 46.7934 77.1948 48.1554C77.7473 51.941 77.9977 52.6943 78.7042 52.6943C79.0875 52.6943 79.4011 52.8935 79.4011 53.1371C79.4011 53.3806 79.096 53.5799 78.723 53.5799C77.8926 53.5799 77.7193 56.9531 78.5266 57.4034C78.8699 57.5949 78.9197 57.4941 78.6652 57.1225C78.4025 56.7389 78.4599 56.6497 78.8347 56.8588C79.6396 57.3078 79.5363 58.0081 78.6652 58.0081C78.2533 58.0081 77.9292 58.403 77.9292 58.9047C77.9292 59.4597 77.4497 59.9659 76.6707 60.2332C75.3621 60.6823 75.2612 60.6872 73.9319 60.3686L73.9319 60.3685ZM75.3535 55.9315C74.8812 55.8201 74.1085 55.8201 73.6363 55.9315C73.164 56.0428 73.5504 56.134 74.4949 56.134C75.4393 56.134 75.8257 56.0428 75.3535 55.9315ZM76.7533 54.5393C76.5143 54.1902 73.5136 54.3735 73.5136 54.7371C73.5136 54.8312 74.2994 54.9083 75.2598 54.9083C76.2202 54.9083 76.8922 54.7422 76.7532 54.5393H76.7533ZM74.5869 53.2773C74.2327 53.1494 73.8095 53.1651 73.6465 53.3123C73.4834 53.4594 73.7732 53.5641 74.2904 53.5449C74.862 53.5236 74.9782 53.4187 74.5868 53.2773H74.5869ZM76.7406 50.8675C77.0813 50.37 75.4381 50.3751 74.5651 50.8743C74.096 51.1426 74.2798 51.255 75.1873 51.255C75.8957 51.255 76.5947 51.0807 76.7406 50.8675ZM76.6817 49.121C76.2611 48.5068 75.9667 48.6213 75.9667 49.3992C75.9667 49.7789 76.1911 49.9644 76.4653 49.8114C76.7396 49.6584 76.837 49.3478 76.6817 49.121L76.6817 49.121ZM75.4761 48.8786C75.4761 48.7852 75.0345 48.7088 74.4948 48.7088C73.9551 48.7088 73.5135 48.8894 73.5135 49.1102C73.5135 49.3309 73.9551 49.4073 74.4948 49.2799C75.0345 49.1526 75.4761 48.9719 75.4761 48.8786ZM75.5987 44.873C75.2614 44.7501 74.7095 44.7501 74.3721 44.873C74.0348 44.9958 74.3108 45.0963 74.9854 45.0963C75.6601 45.0963 75.936 44.9958 75.5987 44.873ZM85.6027 60.3575C85.0502 59.8588 85.2662 59.3363 86.025 59.3363C86.4297 59.3363 86.7609 59.5238 86.7609 59.7529C86.7609 60.3113 85.9947 60.7112 85.6028 60.3575L85.6027 60.3575ZM70.6316 59.8344C70.8368 59.2788 71.5515 59.1498 71.5515 59.6684C71.5515 59.851 71.3031 60.0752 70.9995 60.1665C70.696 60.2579 70.5304 60.1084 70.6316 59.8344ZM80.4648 59.7791C80.7118 59.1104 81.5008 59.0415 81.7323 59.6684C81.8447 59.9728 81.5687 60.2219 81.119 60.2219C80.6692 60.2219 80.3748 60.0226 80.4648 59.7791ZM68.4311 59.4718C67.8785 58.9731 68.0946 58.4506 68.8533 58.4506C69.258 58.4506 69.5892 58.6381 69.5892 58.8673C69.5892 59.4257 68.8231 59.8256 68.4311 59.4718L68.4311 59.4718ZM82.5569 59.2867C82.134 58.6691 83.411 57.9067 83.9913 58.4305C84.4633 58.8564 84.0086 59.7791 83.3267 59.7791C83.0888 59.7791 82.7423 59.5575 82.5569 59.2867ZM62.3114 58.8934C62.5584 58.2248 63.3473 58.1558 63.5788 58.7827C63.6913 59.0872 63.4153 59.3363 62.9656 59.3363C62.5158 59.3363 62.2214 59.137 62.3114 58.8934ZM66.6453 58.6981C66.6453 58.3185 66.8661 58.0078 67.1359 58.0078C67.7708 58.0078 67.7708 58.7607 67.1359 59.1148C66.8661 59.2654 66.6453 59.0779 66.6453 58.6982V58.6981ZM87.2519 58.8934C87.2519 58.6499 87.5831 58.4506 87.9879 58.4506C88.3926 58.4506 88.7238 58.6499 88.7238 58.8934C88.7238 59.137 88.3926 59.3363 87.9879 59.3363C87.5831 59.3363 87.2519 59.137 87.2519 58.8934ZM60.7577 57.565C60.7577 57.3214 61.0889 57.1222 61.4937 57.1222C61.8984 57.1222 62.2296 57.3214 62.2296 57.565C62.2296 57.8085 61.8984 58.0078 61.4937 58.0078C61.0889 58.0078 60.7577 57.8085 60.7577 57.565ZM70.5704 57.3436C70.5704 56.9376 70.8464 56.6885 71.1837 56.79C71.8782 56.999 71.8019 57.7111 71.061 57.934C70.7912 58.0152 70.5704 57.7495 70.5704 57.3436ZM79.8924 57.3436C79.8924 56.9782 80.2236 56.6793 80.6284 56.6793C81.0331 56.6793 81.3643 56.9782 81.3643 57.3436C81.3643 57.7089 81.0331 58.0078 80.6284 58.0078C80.2236 58.0078 79.8924 57.7089 79.8924 57.3436ZM88.7238 57.565C88.7238 57.3214 88.9446 57.1222 89.2144 57.1222C89.4843 57.1222 89.7051 57.3214 89.7051 57.565C89.7051 57.8085 89.4843 58.0078 89.2144 58.0078C88.9446 58.0078 88.7238 57.8085 88.7238 57.565ZM63.6392 56.5408C62.2885 55.717 62.013 55.2912 62.14 54.2235C62.4021 52.0203 64.9923 47.5183 67.2804 45.2887C68.4837 44.1161 69.342 42.8934 69.2063 42.5451C69.0642 42.1803 69.4238 42.3054 70.0635 42.8433C70.6695 43.3529 71.0302 43.9674 70.8649 44.2088C70.6996 44.4502 70.8417 44.7395 71.1807 44.8516C71.6738 45.0147 71.6745 45.1727 71.1838 45.6422C70.8464 45.9649 70.5705 46.023 70.5705 45.7714C70.5705 45.5197 70.2699 45.3138 69.9027 45.3138C69.0303 45.3138 69.1409 46.5543 70.0798 47.3024C70.7168 47.81 70.6739 47.8618 69.7616 47.6878C68.837 47.5114 68.5824 47.8478 67.6916 50.4225C67.133 52.0372 66.5297 54.2097 66.3509 55.2501C66.1721 56.2906 65.8612 57.2338 65.6599 57.346C65.4587 57.4583 64.5493 57.096 63.6392 56.541L63.6392 56.5408ZM64.6829 56.4735C64.6829 56.3603 64.1861 56.0504 63.5789 55.7848C62.5189 55.3212 62.5128 55.3293 63.4274 55.9906C64.4284 56.7145 64.6829 56.8123 64.6829 56.4735L64.6829 56.4735ZM65.7918 52.6886C66.2942 52.1797 66.2719 52.1585 65.6641 52.5669C65.2594 52.8389 64.7442 53.0618 64.5193 53.0621C64.2945 53.0626 63.9982 53.1642 63.8611 53.288C63.7239 53.4118 63.9654 53.4662 64.3976 53.409C64.8298 53.3517 65.4572 53.0276 65.7918 52.6886V52.6886ZM64.6829 52.0249C65.2892 51.9796 66.8272 50.9481 66.3064 50.9361C65.985 50.9287 65.5834 51.1251 65.4139 51.3727C65.2444 51.6202 64.9252 51.722 64.7046 51.599C64.4839 51.4759 64.0024 51.7102 63.6345 52.1195C63.0585 52.7606 63.0678 52.8069 63.7016 52.4536C64.1064 52.2279 64.5479 52.035 64.6829 52.0249V52.0249ZM66.7808 50.1904C66.3272 50.0246 66.3637 49.7181 66.9301 48.9379C67.4628 48.2042 67.5207 47.816 67.1301 47.5982C66.8276 47.4295 66.5373 47.3612 66.4849 47.4465C66.4325 47.5317 65.9504 48.0962 65.4136 48.7009C64.4803 49.7522 64.4792 49.7716 65.388 49.1437C66.2424 48.5535 66.3078 48.5611 66.0351 49.2188C65.7031 50.0195 66.0219 50.4993 66.8498 50.4449C67.1584 50.4246 67.1295 50.3178 66.7807 50.1904L66.7808 50.1904ZM68.8655 57.14C68.4494 56.5324 68.8177 56.0762 69.5428 56.3011C69.8398 56.3932 69.8778 56.7059 69.6348 57.0587C69.3282 57.5042 69.1292 57.5252 68.8655 57.14V57.14ZM82.1822 57.2698C81.6177 56.7603 81.825 56.2366 82.5911 56.2366C82.9959 56.2366 83.3271 56.5355 83.3271 56.9008C83.3271 57.5923 82.7468 57.7793 82.1823 57.2698L82.1822 57.2698ZM66.9594 56.8149C66.4068 56.3162 66.6228 55.7937 67.3816 55.7937C67.7863 55.7937 68.1175 55.9812 68.1175 56.2104C68.1175 56.7688 67.3513 57.1687 66.9594 56.8149L66.9594 56.8149ZM83.8175 56.0002C83.8175 52.8439 80.4247 45.1635 78.1061 43.0703C76.5283 41.6463 76.9135 41.3565 79.1253 42.3037C82.6853 43.8284 88.2334 50.9679 88.2334 54.0243C88.2334 55.402 87.0881 56.4813 85.1669 56.914C83.9404 57.1903 83.8177 57.1071 83.8177 55.9999L83.8175 56.0002ZM86.8257 52.5426C86.5251 52.2157 86.3877 51.8172 86.5203 51.6569C86.6528 51.4967 86.6136 51.4656 86.4332 51.5879C86.2527 51.7102 85.6628 51.4611 85.1222 51.0344C84.5818 50.6077 84.3009 50.5076 84.4981 50.812C84.6953 51.1165 84.6413 51.3655 84.378 51.3655C84.1147 51.3655 83.788 51.1165 83.6518 50.812C83.4653 50.3948 83.3948 50.391 83.3656 50.7964C83.3242 51.3716 84.9993 52.3654 85.4003 52.0035C85.5323 51.8844 85.9195 52.0907 86.2609 52.4619C86.6022 52.8331 86.9919 53.1368 87.1268 53.1368C87.2618 53.1368 87.1262 52.8694 86.8257 52.5426L86.8257 52.5426ZM85.2894 49.8157C84.6556 49.2068 84.3301 48.7086 84.5661 48.7086C85.2473 48.7086 83.9075 47.6654 83.0865 47.5567C82.005 47.4134 82.1453 47.6429 84.1855 49.3549C86.3295 51.154 86.9536 51.4144 85.2894 49.8157ZM82.3456 45.635C82.3456 45.4058 82.1616 45.1157 81.9368 44.9903C81.7119 44.8648 81.5279 45.0523 81.5279 45.407C81.5279 45.7616 81.7119 46.0517 81.9368 46.0517C82.1616 46.0517 82.3456 45.8642 82.3456 45.635ZM89.4598 56.2366C89.293 55.993 89.3904 55.7937 89.6762 55.7937C89.9619 55.7937 90.1957 55.993 90.1957 56.2366C90.1957 56.804 89.8483 56.804 89.4598 56.2366H89.4598ZM59.7765 55.7937C59.7765 55.5502 60.1077 55.3509 60.5124 55.3509C60.9172 55.3509 61.2484 55.5502 61.2484 55.7937C61.2484 56.0373 60.9172 56.2366 60.5124 56.2366C60.1077 56.2366 59.7765 56.0373 59.7765 55.7937ZM78.5839 55.149C78.5839 54.7944 78.7679 54.6069 78.9928 54.7323C79.5227 55.0279 79.5227 55.7937 78.9928 55.7937C78.7679 55.7937 78.5839 55.5036 78.5839 55.149V55.149ZM79.8923 55.1969C79.8923 54.8374 80.4775 54.5851 81.3642 54.5623C82.1738 54.5415 82.8361 54.7318 82.8361 54.9851C82.8361 55.2384 82.512 55.3334 82.1159 55.1962C81.7197 55.059 81.2651 55.1374 81.1057 55.3703C80.677 55.9963 79.8923 55.8842 79.8923 55.1969V55.1969ZM70.6316 54.9635C70.8368 54.4078 71.5515 54.2788 71.5515 54.7974C71.5515 54.9801 71.3032 55.2042 70.9996 55.2956C70.696 55.3869 70.5304 55.2374 70.6316 54.9635ZM67.4218 54.5247C67.2105 54.2161 67.1701 53.844 67.332 53.6978C67.7711 53.3015 68.2499 53.8843 68.0127 54.5265C67.8465 54.9765 67.731 54.9762 67.4218 54.5247V54.5247ZM68.6895 54.4653C68.9364 53.7966 69.7254 53.7277 69.9569 54.3546C70.0694 54.659 69.7934 54.9081 69.3437 54.9081C68.8939 54.9081 68.5995 54.7088 68.6895 54.4653ZM89.2755 54.0778C89.4807 53.5222 90.1954 53.3932 90.1954 53.9118C90.1954 54.0944 89.947 54.3186 89.6435 54.4099C89.3399 54.5013 89.1743 54.3518 89.2755 54.0778ZM60.2668 53.6058C60.2668 53.3766 60.4876 53.0659 60.7574 52.9154C61.0273 52.7649 61.248 52.9524 61.248 53.3321C61.248 53.7118 61.0273 54.0224 60.7574 54.0224C60.4876 54.0224 60.2668 53.8349 60.2668 53.6058ZM79.8921 52.8893C79.8921 52.5096 80.1129 52.3221 80.3828 52.4726C81.0176 52.8267 81.0176 53.5796 80.3828 53.5796C80.1129 53.5796 79.8921 53.269 79.8921 52.8893V52.8893ZM81.65 53.1962C81.4387 52.8876 81.3982 52.5155 81.5602 52.3693C81.9993 51.973 82.4781 52.5559 82.2409 53.1981C82.0747 53.6481 81.9591 53.6477 81.65 53.1963V53.1962ZM70.8414 52.7318C70.6834 52.5011 70.7633 52.1957 71.0189 52.0532C71.2745 51.9106 71.6129 51.9827 71.7708 52.2134C71.9288 52.4441 71.8489 52.7494 71.5933 52.892C71.3377 53.0346 70.9993 52.9625 70.8414 52.7318ZM67.8452 52.2126C67.6639 51.9478 67.7613 51.5095 68.0616 51.2384C68.4625 50.8765 68.6076 51.0045 68.6076 51.7198C68.6076 52.789 68.3527 52.9538 67.8452 52.2126H67.8452ZM69.0982 52.0298C69.0982 51.6644 69.319 51.3655 69.5889 51.3655C69.8587 51.3655 70.0795 51.6644 70.0795 52.0298C70.0795 52.3951 69.8587 52.694 69.5889 52.694C69.319 52.694 69.0982 52.3951 69.0982 52.0298ZM88.5047 52.2897C87.9943 51.5444 88.7163 50.739 89.3678 51.3269C89.7519 51.6736 89.7519 51.9431 89.3678 52.2897C88.9837 52.6364 88.7421 52.6364 88.5047 52.2897ZM60.7575 51.3655C60.7575 51.122 61.0886 50.9227 61.4934 50.9227C61.8982 50.9227 62.2294 51.122 62.2294 51.3655C62.2294 51.6091 61.8982 51.8084 61.4934 51.8084C61.0886 51.8084 60.7575 51.6091 60.7575 51.3655ZM77.9296 50.4799C77.9296 50.2364 78.2608 50.0371 78.6656 50.0371C79.0703 50.0371 79.4015 50.2364 79.4015 50.4799C79.4015 50.7235 79.0703 50.9227 78.6656 50.9227C78.2608 50.9227 77.9296 50.7235 77.9296 50.4799ZM80.3828 50.506C80.3828 50.2769 80.6036 49.9662 80.8734 49.8157C81.1433 49.6651 81.3641 49.8527 81.3641 50.2324C81.3641 50.6121 81.1433 50.9227 80.8734 50.9227C80.6036 50.9227 80.3828 50.7352 80.3828 50.506ZM87.7423 50.2585C87.7423 49.8526 88.0183 49.6035 88.3556 49.705C89.0501 49.9139 88.9738 50.626 88.2329 50.8489C87.9631 50.9301 87.7423 50.6644 87.7423 50.2585ZM61.984 49.5943C62.1508 49.3507 62.508 49.1514 62.7779 49.1514C63.0477 49.1514 63.1321 49.3507 62.9653 49.5943C62.7985 49.8378 62.4413 50.0371 62.1715 50.0371C61.9016 50.0371 61.8173 49.8378 61.9841 49.5943H61.984ZM68.6076 49.3467C68.6076 48.967 68.8284 48.7795 69.0982 48.93C69.7331 49.2842 69.7331 50.0371 69.0982 50.0371C68.8284 50.0371 68.6076 49.7264 68.6076 49.3467V49.3467ZM70.8154 49.5943C71.2078 49.0213 72.042 49.0213 72.042 49.5943C72.042 49.8378 71.6978 50.0371 71.2771 50.0371C70.8564 50.0371 70.6487 49.8378 70.8155 49.5943H70.8154ZM86.761 48.7086C86.761 48.4651 86.9818 48.2658 87.2517 48.2658C87.5215 48.2658 87.7423 48.4651 87.7423 48.7086C87.7423 48.9522 87.5215 49.1514 87.2517 49.1514C86.9818 49.1514 86.761 48.9522 86.761 48.7086ZM77.9296 48.2658C77.9296 48.0223 78.1504 47.823 78.4203 47.823C78.6901 47.823 78.9109 48.0223 78.9109 48.2658C78.9109 48.5094 78.6901 48.7086 78.4203 48.7086C78.1504 48.7086 77.9296 48.5094 77.9296 48.2658ZM79.6728 48.3036C79.5148 48.0729 79.5947 47.7675 79.8503 47.625C80.1059 47.4824 80.4443 47.5545 80.6022 47.7852C80.7602 48.0159 80.6803 48.3212 80.4247 48.4638C80.1691 48.6064 79.8307 48.5343 79.6728 48.3036ZM63.2105 47.823C63.2105 47.5794 63.4313 47.3802 63.7012 47.3802C63.971 47.3802 64.1918 47.5794 64.1918 47.823C64.1918 48.0665 63.971 48.2658 63.7012 48.2658C63.4313 48.2658 63.2105 48.0665 63.2105 47.823ZM71.0607 47.3802C71.0607 47.1366 71.3918 46.9373 71.7966 46.9373C72.2014 46.9373 72.5326 47.1366 72.5326 47.3802C72.5326 47.6237 72.2014 47.823 71.7966 47.823C71.3918 47.823 71.0607 47.6237 71.0607 47.3802ZM85.7797 47.3802C85.7797 47.1366 86.0004 46.9373 86.2703 46.9373C86.5401 46.9373 86.7609 47.1366 86.7609 47.3802C86.7609 47.6237 86.5401 47.823 86.2703 47.823C86.0004 47.823 85.7797 47.6237 85.7797 47.3802ZM64.6824 46.0517C64.6824 45.8082 64.9032 45.6089 65.1731 45.6089C65.4429 45.6089 65.6637 45.8082 65.6637 46.0517C65.6637 46.2953 65.4429 46.4945 65.1731 46.4945C64.9032 46.4945 64.6824 46.2953 64.6824 46.0517ZM84.6483 46.2113C84.4757 46.0556 84.4542 45.7535 84.6004 45.5399C84.914 45.0819 85.7797 45.4768 85.7797 46.0778C85.7797 46.5539 85.1147 46.6324 84.6482 46.2113H84.6483ZM72.0419 45.4136C72.0419 45.0339 72.2627 44.7233 72.5326 44.7233C73.1674 44.7233 73.1674 45.4762 72.5326 45.8303C72.2627 45.9808 72.0419 45.7933 72.0419 45.4136V45.4136ZM78.4202 45.6089C78.4202 45.3653 78.6409 45.1661 78.9108 45.1661C79.1806 45.1661 79.4014 45.3653 79.4014 45.6089C79.4014 45.8524 79.1806 46.0517 78.9108 46.0517C78.6409 46.0517 78.4202 45.8524 78.4202 45.6089ZM65.6637 44.9708C65.6637 44.8634 65.8845 44.6524 66.1543 44.5018C66.4242 44.3513 66.645 44.4392 66.645 44.6971C66.645 44.955 66.4242 45.1661 66.1543 45.1661C65.8845 45.1661 65.6637 45.0782 65.6637 44.9708ZM83.3265 44.7233C83.3265 44.4797 83.5473 44.2804 83.8171 44.2804C84.087 44.2804 84.3078 44.4797 84.3078 44.7233C84.3078 44.9668 84.087 45.1661 83.8171 45.1661C83.5473 45.1661 83.3265 44.9668 83.3265 44.7233ZM71.176 43.3216C70.4669 42.6817 71.7776 41.6444 73.2686 41.6657C74.1694 41.6785 74.16 41.7123 73.1541 42.0774C72.4446 42.335 72.1604 42.7152 72.348 43.1564C72.6894 43.9594 71.9916 44.0578 71.176 43.3216H71.176ZM81.8546 43.4209C81.8546 43.163 82.0754 42.952 82.3452 42.952C82.9739 42.952 82.9739 43.2655 82.3452 43.6162C82.0754 43.7667 81.8546 43.6789 81.8546 43.4209V43.4209ZM75.231 40.7379C75.0643 40.4943 75.1616 40.2951 75.4474 40.2951C75.7332 40.2951 75.967 40.4943 75.967 40.7379C75.967 41.3053 75.6196 41.3053 75.231 40.7379H75.231ZM46.1797 61.2143C46.6143 59.8161 47.9471 57.3355 49.1414 55.7016C50.3356 54.0678 51.1931 52.6231 51.0469 52.4912C50.5041 52.0012 48.5911 52.2735 47.9909 52.9262C47.6496 53.2974 47.2565 53.4984 47.1174 53.3729C46.9783 53.2473 46.5588 53.3735 46.1853 53.6534C45.1959 54.3944 44.1785 53.428 45.0035 52.5309C45.4567 52.0379 45.4597 51.8117 45.0162 51.5643C44.6878 51.3811 44.2356 51.5663 43.9715 51.9922C43.5801 52.6234 43.3752 52.651 42.6869 52.1651C41.971 51.6598 41.9446 51.6759 42.4769 52.292C42.8119 52.6797 42.9559 53.1144 42.7969 53.2578C42.287 53.718 41.1322 53.0667 41.1244 52.3146C41.1202 51.9144 40.8816 51.2881 40.5941 50.9228C40.1973 50.4188 40.1478 50.579 40.3885 51.587C40.8498 53.5184 41.7578 54.2253 43.0042 53.6233C43.8434 53.2179 44.0613 53.2841 44.3211 54.0229C44.6961 55.0893 45.2198 55.1407 46.2485 54.2123C47.5113 53.0726 47.1224 54.2213 45.7738 55.6143C45.0888 56.3219 43.7174 58.3694 42.7264 60.1642L40.9246 63.4277L42.0472 64.2482C43.7426 65.4872 45.179 64.4325 46.1796 61.2141L46.1797 61.2143ZM108.004 63.1321C108.831 62.5663 108.698 62.2504 105.909 58.1646C104.271 55.7648 102.285 53.104 101.496 52.2512C100.145 50.791 100.013 50.7448 99.2186 51.4535C98.4226 52.1637 98.4746 52.3045 100.149 53.9776C101.964 55.7909 103.59 58.5643 104.208 60.9015C104.595 62.3685 105.766 63.7718 106.584 63.7504C106.88 63.7426 107.519 63.4643 108.004 63.132V63.1321ZM50.355 62.9436C50.7702 62.7059 51.0348 61.3596 51.1153 59.0757C51.205 56.5304 51.5331 55.0368 52.3149 53.6135C53.6933 51.1045 53.3466 50.7548 51.7475 53.0411C50.163 55.3066 49.2855 57.2263 48.5255 60.0904C47.7479 63.0206 48.4118 64.0561 50.355 62.9436V62.9436ZM22.0847 61.8028C22.4412 61.4544 23.2516 60.4082 23.8854 59.478C25.4581 57.1696 29.6008 54.1398 32.4229 53.2342C33.7047 52.8228 34.7534 52.325 34.7534 52.128C34.7534 51.9309 34.4774 51.8197 34.1401 51.8809C33.8028 51.9421 32.9197 51.8474 32.1776 51.6705C31.0871 51.4105 30.8283 51.0956 30.8283 50.0288C30.8283 49.2605 30.5692 48.7087 30.2085 48.7087C29.0422 48.7087 24.4268 51.8452 23.0276 53.5886C21.023 56.0862 19.3702 59.9798 19.7439 61.3238C20.088 62.561 21.0971 62.7675 22.0847 61.8027L22.0847 61.8028ZM101.935 62.0213C102.531 61.6812 102.541 61.328 102.002 59.7033C101.136 57.0931 99.7193 54.5081 98.2851 52.9242L97.0902 51.6042L97.7485 53.5884C98.1105 54.6797 98.4373 56.8495 98.4747 58.4098C98.5627 62.0847 99.7163 63.2888 101.935 62.0212L101.935 62.0213ZM130.659 60.2679C131.536 56.666 125.823 50.3027 120.067 48.4699C118.175 47.8674 118.154 47.8725 118.701 48.7953C119.172 49.5882 119.078 49.8573 118.095 50.5413C117.456 50.9861 116.657 51.2601 116.32 51.1503C115.982 51.0404 115.707 51.0938 115.708 51.2688C115.709 51.4438 116.696 51.953 117.901 52.4002C121.144 53.604 124.178 55.8772 126.187 58.6094C128.597 61.8856 130.128 62.4534 130.659 60.268V60.2679ZM96.9637 58.7514C98.2419 55.5612 97.1879 51.8386 94.12 48.7074L92.1687 46.7159L93.4497 49.3112C94.8764 52.2015 95.526 56.9042 94.6927 58.3097C94.3088 58.9572 94.319 59.3403 94.7302 59.7114C95.6847 60.5729 96.3482 60.2877 96.9637 58.7514H96.9637ZM22.6376 52.9961C26.0763 49.8372 28.5694 48.397 31.5622 47.8395C32.7163 47.6245 33.0341 47.3302 33.0341 46.4765C33.0341 45.4299 32.91 45.3881 29.845 45.4026C25.7777 45.4217 22.6808 46.7199 19.1737 49.8755C16.9276 51.8967 16.5979 52.419 16.5979 53.9566C16.5979 55.641 16.9981 56.1216 18.4673 56.2015C18.8209 56.2208 20.6975 54.7783 22.6377 52.996L22.6376 52.9961ZM133.212 55.3168C133.917 54.6806 133.295 52.298 131.887 50.243C129.477 46.7234 123.65 44.3256 118.309 44.6563C117.337 44.7165 117.28 44.8504 117.728 46.0109C118.053 46.8538 118.68 47.3997 119.542 47.591C122.664 48.2842 127.4 51.6609 129.338 54.5761C130.189 55.8561 132.19 56.2388 133.212 55.3168L133.212 55.3168ZM136.346 54.4498C138.412 53.4519 137.092 49.4034 133.835 46.7474C130.559 44.076 127.831 43.1838 123.067 43.2251C119.769 43.2536 119.307 43.1878 120.859 42.9106C126.03 41.987 135.467 42.7663 140.053 44.4955C142.377 45.3722 142.692 45.3436 142.692 44.2554C142.692 42.3135 137.706 39.2657 133.292 38.5103C130.097 37.9634 128.051 38.4355 122.431 41.0168C119.404 42.4071 117.803 42.909 117.067 42.6981C116.068 42.412 116.087 42.3657 117.457 41.7388C120.206 40.4807 123.149 37.4915 124.765 34.3167C126.771 30.3767 127.363 27.5553 127.97 19.0394C128.574 10.5709 129.514 6.8127 131.717 4.06191C133.682 1.60709 134.074 0.928782 133.713 0.602911C133.094 0.0448695 131.355 1.05215 129.941 2.7869C127.288 6.04277 126.43 9.4655 126.2 17.7108C125.951 26.6062 125.378 29.8401 123.337 33.8737C121.685 37.1373 120.128 38.8833 116.998 40.9792C115.192 42.1891 115.151 42.2701 116.14 42.6684C116.711 42.8985 117.179 43.2673 117.179 43.488C117.179 43.7087 117.387 43.7729 117.642 43.6307C118.423 43.1949 124.766 44.5874 127.298 45.7506C128.613 46.3548 130.167 47.3171 130.751 47.8892C132.229 49.3377 134.427 53.2035 134.147 53.862C133.955 54.3139 134.34 54.669 135.241 54.8726C135.327 54.8918 135.823 54.7013 136.345 54.4492L136.346 54.4498ZM106.019 53.1998C106.299 52.2301 105.595 50.9228 104.791 50.9228C104.379 50.9228 104.386 51.0664 104.815 51.4542C105.139 51.7465 105.404 52.3443 105.404 52.7826C105.404 53.7966 103.662 53.8524 103.237 52.8521C103.067 52.4519 102.791 52.2479 102.624 52.3986C102.457 52.5493 102.6 52.9764 102.941 53.3476C103.815 54.2985 105.727 54.2067 106.019 53.1998L106.019 53.1998ZM38.9882 53.2408C39.2936 53.0619 39.5016 52.4173 39.4504 51.8084C39.3992 51.1996 39.5303 50.4875 39.7418 50.2262C40.0002 49.9068 39.6475 49.8143 38.6664 49.9443C37.3646 50.1168 37.2064 50.0123 37.2064 48.9804C37.2064 48.3439 36.9726 47.8231 36.6868 47.8231C36.401 47.8231 36.2881 47.6466 36.4358 47.4309C36.5835 47.2152 36.0997 46.9348 35.3608 46.8076L34.0173 46.5765L35.3665 47.5485C36.1086 48.0832 36.7158 48.9399 36.7158 49.4523C36.7158 50.0704 37.1183 50.4752 37.9117 50.6549C39.5132 51.0177 39.4094 52.6228 37.7603 52.9963C36.9172 53.1873 36.368 53.0267 35.9035 52.4534C35.3444 51.7633 35.2439 51.7478 35.2439 52.3512C35.2439 53.4158 37.6954 53.9984 38.9882 53.2409L38.9882 53.2408ZM109.811 52.4808C110.332 51.9139 110.548 51.9094 111.4 52.4479C112.641 53.2322 114.725 52.5093 114.725 51.2946C114.725 50.747 115.087 50.4778 115.829 50.4732C117.662 50.4619 118.202 49.8965 117.859 48.3472C117.687 47.5719 117.329 46.9374 117.064 46.9374C116.798 46.9374 116.713 47.4128 116.875 47.9938C117.061 48.6623 116.9 49.2513 116.437 49.5979C115.568 50.2488 115.446 49.5631 116.295 48.7973C116.619 48.505 116.738 48.2659 116.559 48.2659C115.912 48.2659 114.234 50.2239 114.234 50.9802C114.234 52.0163 113.456 52.3933 111.999 52.0631C111.206 51.8836 110.8 51.4782 110.8 50.867C110.8 50.2239 111.026 50.0206 111.542 50.1993C112.867 50.6584 114.596 49.6271 114.361 48.5172C114.194 47.7326 114.478 47.3965 115.689 46.9437C116.698 46.5666 117.136 46.1482 116.958 45.7309C116.809 45.3804 116.687 44.8068 116.687 44.4562C116.687 44.1056 116.144 43.5954 115.481 43.3226C114.538 42.9347 114.374 42.6589 114.729 42.0593C115.058 41.5046 114.94 41.093 114.303 40.5723C113.279 39.7363 112.543 39.6168 113.059 40.3704C113.298 40.7187 113.147 40.7958 112.598 40.6057C112.149 40.4502 111.781 40.516 111.781 40.7519C111.781 41.1329 112.846 41.3786 113.866 41.2332C114.069 41.2044 114.234 41.3574 114.234 41.5733C114.234 41.7892 113.587 42.0516 112.796 42.1564C111.71 42.3003 111.301 42.1502 111.125 41.5424C110.997 41.1 110.623 40.738 110.295 40.738C109.839 40.738 109.833 40.884 110.27 41.3594C110.741 41.8715 110.582 41.9646 109.364 41.8885C108.488 41.8337 107.783 42.0428 107.63 42.4031C107.446 42.8341 107.643 42.9322 108.308 42.7416C108.824 42.594 109.394 42.6902 109.576 42.9555C109.81 43.2974 110.089 43.3006 110.535 42.9664C111.012 42.609 111.31 42.8118 111.766 43.8038C112.461 45.3183 112.114 46.1149 110.907 45.7776C110.171 45.5719 110.176 45.6068 110.948 46.0533C111.619 46.441 112.001 46.4384 112.529 46.0429C113.128 45.5943 113.129 45.3133 112.539 44.0384L111.853 42.5557L113.077 42.9757C115.605 43.8432 116.257 44.3379 116.104 45.2721C116.02 45.7846 115.645 46.2951 115.27 46.4067C114.799 46.5469 114.714 46.4208 114.996 45.9985C115.342 45.4801 115.278 45.4796 114.574 45.9953C114.117 46.3296 113.744 46.4648 113.744 46.2958C113.744 46.1268 113.406 46.2932 112.993 46.6656C112.581 47.038 111.919 47.2301 111.522 47.0927C111.125 46.9552 110.8 47.0518 110.8 47.3074C110.8 47.7677 111.793 47.7161 113.294 47.1779C113.921 46.9531 114.03 47.1514 113.858 48.2068C113.566 50.0007 112.312 50.155 110.306 48.6435C108.345 47.1664 107.671 47.0433 108.092 48.2389C108.434 49.2115 107.18 50.0285 105.313 50.0506C104.314 50.0625 104.279 50.1181 105.024 50.5099C106.083 51.0669 108.837 49.8988 108.837 48.8926C108.837 48.5192 109.062 48.3388 109.336 48.4918C109.61 48.6447 109.702 48.9641 109.539 49.2015C109.377 49.4389 109.487 49.8975 109.784 50.2207C110.189 50.6611 110.088 51.0711 109.382 51.858C108.454 52.8927 108.426 52.8957 107.412 52.0681C106.847 51.6062 106.384 51.4486 106.384 51.7178C106.384 52.2486 107.762 53.1017 108.655 53.1234C108.959 53.1308 109.479 52.8417 109.811 52.4808L109.811 52.4808ZM37.9088 52.3014C38.0567 52.0855 37.8667 51.6758 37.4865 51.3911C36.931 50.975 36.8284 51.0304 36.9638 51.673C37.0564 52.1128 37.149 52.5225 37.1697 52.5834C37.252 52.826 37.6548 52.6723 37.9088 52.3014H37.9088ZM16.6006 51.771C16.6006 51.5372 17.4741 50.4906 18.5416 49.4453C20.8801 47.1556 25.0833 45.1482 28.2577 44.805L30.5837 44.5535L28.0337 44.027C26.3245 43.6741 24.7067 43.6309 23.1273 43.896C19.7875 44.4565 15.6761 46.4397 14.8445 47.8914C14.182 49.0476 13.8958 51.4336 14.3685 51.8602C14.8084 52.2572 16.6008 52.1856 16.6008 51.7711L16.6006 51.771ZM48.5516 51.7795C49.0888 51.52 49.7227 50.8724 49.9602 50.3403C50.3662 49.4308 50.3939 49.4457 50.4232 50.5907C50.4413 51.3016 50.7289 51.8084 51.1142 51.8084C52.1374 51.8084 53.5104 50.1948 53.2526 49.2952C53.0572 48.6128 53.0124 48.6337 52.9643 49.4294C52.933 49.9476 52.5788 50.6176 52.1772 50.9184C51.422 51.4841 51.3787 51.4428 50.8345 49.633C50.731 49.289 50.2988 48.9614 49.8739 48.9052C49.3181 48.8315 49.1753 49.0574 49.3645 49.7107C49.5456 50.3356 49.4468 50.5176 49.0474 50.2949C48.7046 50.1037 48.5225 50.2004 48.6022 50.5315C48.82 51.4365 46.9047 51.5426 46.1936 50.6649C45.8385 50.2266 45.5479 50.0397 45.5479 50.2498C45.5479 50.6433 47.0145 52.2513 47.3734 52.2513C47.4842 52.2513 48.0145 52.039 48.5516 51.7795L48.5516 51.7795ZM103.243 51.4696C103.899 51.0693 104.482 49.1515 103.947 49.1515C103.734 49.1515 103.444 49.5501 103.303 50.0372C103.149 50.5671 102.633 50.9228 102.019 50.9228C100.769 50.9228 100.679 50.2397 101.85 49.6461C102.666 49.2327 102.666 49.1963 101.853 48.9135C101.382 48.7498 101.126 48.4278 101.283 48.198C101.454 47.9487 101.854 47.9928 102.273 48.307C102.851 48.7398 102.916 48.6903 102.635 48.0302C102.37 47.4078 102.475 47.2894 103.099 47.5054C103.542 47.6588 104.012 47.627 104.143 47.4347C104.275 47.2424 104.117 47.0635 103.791 47.0372C102.209 46.9092 101.273 46.5915 101.1 46.1238C100.995 45.8406 100.673 45.609 100.384 45.609C100.095 45.609 100.224 45.9734 100.67 46.4188C101.663 47.4086 101.714 47.8756 100.796 47.5576C100.418 47.4269 99.9782 47.5119 99.8175 47.7465C99.6568 47.9812 99.8802 48.296 100.314 48.4462C100.957 48.6688 100.989 48.8423 100.489 49.3865C99.9887 49.9301 100.038 50.2165 100.755 50.9311C101.683 51.8573 102.365 52.0048 103.243 51.4696L103.243 51.4696ZM113.32 51.0335C113.93 50.3312 113.913 50.3155 113.135 50.8663C112.318 51.4448 112.058 51.8085 112.462 51.8085C112.563 51.8085 112.95 51.4598 113.32 51.0335L113.32 51.0335ZM35.0298 50.7285C35.9724 50.0978 35.9724 50.0831 35.0278 49.2893C34.3732 48.7393 34.2595 48.7123 34.6658 49.2035C35.4037 50.0953 34.3363 51.0896 33.1005 50.6616C31.9658 50.2686 32.1114 48.8231 33.3206 48.4767C34.6571 48.0938 34.2927 47.7836 32.8943 48.1137C32.1032 48.3004 31.8118 48.7029 31.8118 49.6091C31.8118 51.3324 33.335 51.8623 35.0298 50.7284L35.0298 50.7285ZM44.6835 50.2974C45.147 49.6781 45.1376 49.5065 44.5982 48.7372C44.2288 48.2103 44.02 48.2006 43.3791 48.6807C42.9538 48.9993 42.6092 49.4846 42.6133 49.7593C42.6174 50.0339 42.8348 49.9597 43.0964 49.5944C43.5192 49.0039 43.5737 49.0039 43.5871 49.5944C43.6004 50.1848 43.6599 50.1848 44.1225 49.5944C44.5266 49.0787 44.6014 49.0697 44.4571 49.5538C44.3548 49.8968 43.7861 50.2443 43.1932 50.3259C42.1448 50.4704 41.891 50.0956 42.098 48.7087C42.1765 48.1831 42.0685 48.1575 41.5807 48.586C40.5431 49.4975 41.768 51.3624 43.191 51.0375C43.8136 50.8954 44.4852 50.5624 44.6835 50.2974H44.6835ZM99.3548 50.2288C99.5171 49.8471 99.3813 49.2991 99.053 49.0111C98.5892 48.604 98.4927 48.6846 98.6199 49.373C98.723 49.9306 98.5111 50.2586 98.0476 50.2586C97.6429 50.2586 97.3424 49.9099 97.3798 49.4837C97.4173 49.0574 97.2517 48.7087 97.0119 48.7087C96.5049 48.7087 96.4207 50.1924 96.9028 50.6276C97.5125 51.1779 99.0581 50.9265 99.3548 50.2288L99.3548 50.2288ZM33.9631 49.5133C33.8214 49.3064 33.5 49.2517 33.2488 49.3918C32.6068 49.7499 32.6791 49.8896 33.5064 49.8896C33.8993 49.8896 34.1048 49.7203 33.9631 49.5133L33.9631 49.5133ZM40.3826 48.2867C40.5397 48.0571 40.22 47.9473 39.6721 48.0425C38.2583 48.2883 37.6369 48.7036 37.9654 49.1833C38.2664 49.6229 39.8765 49.0257 40.3825 48.2867L40.3826 48.2867ZM95.9615 47.6155C95.8412 46.5271 95.1884 44.8805 94.5108 43.9564C91.41 39.7275 92.0138 39.1567 98.6471 40.0456C101.489 40.4264 104.794 40.738 105.992 40.738C108.701 40.738 113.045 39.6029 114.904 38.409C116.111 37.6342 116.197 37.451 115.514 37.1064C114.899 36.7956 114.835 36.5113 115.231 35.8433C116.061 34.4448 113.773 34.743 110.205 36.4985C108.256 37.4578 106.13 38.1141 104.424 38.2835C100.966 38.6269 90.1399 38.0775 90.4833 37.5762C90.6268 37.3667 93.3253 37.2452 96.4798 37.3061C102.683 37.4259 104.617 36.9018 106.263 34.6547C106.909 33.7724 106.904 33.6344 106.213 33.3952C105.721 33.2247 104.999 33.5864 104.237 34.3861C103.054 35.6279 102.952 35.6474 96.9842 35.773C87.6548 35.9694 85.5436 37.4234 88.6081 41.5416C90.047 43.4753 95.6595 49.5943 95.9941 49.5943C96.0969 49.5943 96.0826 48.7038 95.9623 47.6154L95.9615 47.6155ZM106.504 48.9958C106.802 49.1621 106.886 49.0809 106.699 48.8077C106.518 48.5434 106.598 48.1999 106.877 48.0445C107.155 47.8891 107.256 47.5764 107.101 47.3497C106.946 47.123 107.229 46.9374 107.731 46.9374C108.707 46.9374 109.82 46.1458 109.82 45.4518C109.82 45.2192 109.379 45.3896 108.839 45.8304C107.892 46.6038 107.824 46.6038 106.877 45.8304C106.32 45.3759 105.895 45.2503 105.895 45.5404C105.895 45.8217 105.695 46.0518 105.451 46.0518C105.05 46.0518 105.14 45.0899 105.692 43.4742C105.841 43.0364 106.269 43.1321 107.394 43.8546C108.22 44.3856 109.005 44.7213 109.139 44.6008C109.561 44.2191 105.976 42.454 104.416 42.2758C103.593 42.1818 103.041 42.2817 103.189 42.4979C103.337 42.714 103.243 43.0107 102.981 43.1571C102.319 43.5261 102.842 44.5757 103.687 44.5757C104.068 44.5757 104.267 44.4097 104.128 44.2067C103.989 44.0038 104.109 43.8377 104.395 43.8377C105.203 43.8377 105.006 45.1623 104.153 45.4575C103.715 45.6094 102.883 45.2895 102.191 44.7022C100.845 43.5613 100.54 43.9843 101.801 45.242C102.248 45.6874 103.094 46.0518 103.682 46.0518C105.147 46.0518 105.459 46.4449 104.87 47.5491C104.383 48.461 104.391 48.4632 105.132 47.6277C105.552 47.1549 105.895 46.5737 105.895 46.3361C105.895 45.7238 106.629 46.4585 106.643 47.085C106.649 47.3691 106.373 47.8649 106.03 48.1868C105.686 48.5086 105.422 49.0068 105.444 49.2938C105.471 49.6582 105.557 49.6479 105.731 49.2594C105.867 48.9535 106.215 48.8348 106.504 48.9957V48.9958ZM103.442 43.395C103.847 43.1589 104.509 42.9767 104.914 42.9901C105.399 43.0062 105.316 43.1441 104.669 43.395C103.32 43.9181 102.545 43.9181 103.442 43.395ZM48.6729 48.0628C49.6864 47.0757 49.8627 47.0385 50.5573 47.6655C51.7695 48.7595 53.1757 48.0276 54.1118 45.8155C54.5733 44.7247 55.1419 43.9387 55.3752 44.0688C55.8693 44.3444 57.048 42.5586 56.6244 42.1762C56.4676 42.0347 56.3393 42.1632 56.3393 42.4617C56.3393 42.7602 56.1279 42.8865 55.8696 42.7424C55.6112 42.5983 55.0253 43.1345 54.5676 43.9341C54.1098 44.7336 53.3829 45.6516 52.9521 45.9741C52.5213 46.2966 52.4449 46.4343 52.7822 46.2801C53.6307 45.8921 53.5543 46.7101 52.681 47.3643C51.9115 47.9407 50.7454 47.5834 51.2051 46.9121C51.3584 46.6881 51.1412 46.6236 50.7225 46.7686C50.2676 46.9262 49.9545 46.7904 49.9447 46.4314C49.9342 46.0429 49.6253 46.1577 49.0708 46.7563C48.599 47.2655 47.8213 47.6302 47.3425 47.5668C46.6422 47.4741 46.585 47.5745 47.05 48.0802C47.5071 48.5774 47.4685 48.7089 46.8651 48.7089C46.4454 48.7089 45.9567 48.2953 45.7789 47.7898C45.6012 47.2844 45.3453 46.9704 45.2104 47.0922C45.0755 47.214 45.1105 47.7272 45.2883 48.2327C45.7258 49.4768 47.3021 49.3977 48.6729 48.0628V48.0628ZM43.8806 46.6657C43.9095 46.1508 44.0761 45.5207 44.2509 45.2654C44.6761 44.6445 43.238 44.8576 42.4985 45.525C42.0472 45.9324 42.0646 46.1776 42.5754 46.6055C43.1099 47.0533 43.161 47.0402 42.843 46.5371C42.5775 46.1169 42.6363 46.0191 43.0244 46.2355C43.7181 46.6225 43.2914 47.3804 42.3798 47.3804C41.2839 47.3804 41.0439 45.987 41.9764 45.0378C42.8232 44.1759 42.8176 44.1657 41.7703 44.6615C40.2493 45.3815 40.0235 45.8822 40.7451 46.9357C41.595 48.1767 43.8066 47.9863 43.8806 46.6657L43.8806 46.6657ZM39.0675 47.0791C37.96 46.816 37.4615 45.2898 38.2153 44.4701C38.5459 44.1106 38.7044 43.7153 38.5676 43.5919C38.4308 43.4684 37.9543 43.8695 37.5087 44.4832C36.8388 45.406 36.8053 45.7531 37.315 46.4897C37.6539 46.9796 38.3749 47.3573 38.9172 47.329C39.7107 47.2877 39.74 47.2389 39.0675 47.0791L39.0675 47.0791ZM99.4596 46.384C99.4168 45.6343 99.3472 45.5795 99.1783 46.1626C99.0549 46.5889 98.5838 46.9345 98.1313 46.9308C97.4149 46.9249 97.4037 46.8623 98.0446 46.4462C98.6758 46.0364 98.6641 46.0018 97.9626 46.2036C97.5127 46.333 97.0283 46.1654 96.8862 45.8312C96.7441 45.4969 96.8384 45.1601 97.0958 45.0827C97.3531 45.0053 97.0647 44.6615 96.4549 44.3187C95.5009 43.7824 95.4224 43.7827 95.8924 44.3202C96.1929 44.6637 96.3962 45.3839 96.3441 45.9206C96.292 46.4573 96.4173 46.8028 96.6225 46.6884C96.8276 46.5739 97.1342 46.6828 97.3037 46.9303C97.4732 47.1778 98.0404 47.3803 98.5642 47.3803C99.2416 47.3803 99.5001 47.0927 99.4596 46.384V46.384ZM14.4623 43.852C18.0864 42.6282 26.184 42.6372 30.3215 43.8697C34.051 44.9805 34.4151 44.2707 30.9666 42.6118C27.5419 40.9643 21.5778 39.4097 18.6826 39.4097C12.7307 39.4097 7.23073 43.1179 8.55691 46.2366C8.81118 46.8346 9.0603 46.7804 10.2665 45.8644C11.043 45.2747 12.9313 44.369 14.4628 43.8519L14.4623 43.852ZM48.2669 46.0307C49.3197 44.9808 49.6595 43.7077 48.8196 43.9604C48.5039 44.0554 48.2456 44.4154 48.2456 44.7604C48.2456 45.393 47.1005 46.4546 46.3899 46.4807C46.1789 46.4885 45.8065 46.0464 45.5624 45.4984C45.1187 44.5021 45.1187 44.5021 45.0876 45.4616C45.0359 47.059 46.9011 47.3929 48.2669 46.0308L48.2669 46.0307ZM34.9492 44.6196C35.7734 44.1228 36.3247 44.2194 35.9327 44.7919C35.714 45.1112 35.7983 45.1829 36.157 44.9827C36.9011 44.5677 36.501 44.0063 35.2505 43.7112C34.7063 43.5828 34.3753 43.6446 34.5149 43.8486C34.6546 44.0526 34.5446 44.3447 34.2703 44.4977C33.9961 44.6507 33.7891 45.1128 33.8104 45.5246C33.842 46.1358 33.9006 46.1513 34.1293 45.6092C34.2834 45.2439 34.6523 44.7986 34.9491 44.6196L34.9492 44.6196ZM39.5914 45.4616C39.9971 45.0204 39.971 44.8712 39.4879 44.8712C39.1324 44.8712 38.8415 45.1368 38.8415 45.4616C38.8415 46.1965 38.9156 46.1965 39.5914 45.4616H39.5914ZM55.3221 41.8452C55.7338 41.3581 55.1379 41.7473 53.9979 42.71C52.1258 44.291 51.037 44.4712 52.5385 42.9515C53.0521 42.4317 53.0247 42.4166 52.3707 42.8591C51.9411 43.1496 51.4259 43.2397 51.2259 43.0591C51.0258 42.8786 50.9358 43.0298 51.0257 43.3951C51.1157 43.7604 51.4036 44.1979 51.6657 44.3673C51.9277 44.5367 51.9882 44.8142 51.8002 44.984C51.6122 45.1537 51.1217 45.0405 50.7105 44.7324C50.0952 44.2716 49.9627 44.2939 49.9627 44.8582C49.9627 45.2355 50.3468 45.611 50.8163 45.6926C51.5896 45.827 52.9082 44.701 55.3221 41.8452L55.3221 41.8452ZM5.28237 43.5658C7.83499 40.2036 13.0064 37.6714 17.4614 37.6024L19.7866 37.5664L18.3147 36.9581C16.0906 36.0389 10.8669 36.1646 8.34358 37.198C5.46096 38.3787 3.58223 39.637 2.12186 41.3651C1.0645 42.6163 0.966419 42.9994 1.4098 44.1472C2.08869 45.9049 3.68894 45.6646 5.28242 43.5657L5.28237 43.5658ZM47.2114 45.2402C47.3504 45.0372 47.1426 44.8711 46.7497 44.8711C46.3569 44.8711 46.0354 45.0372 46.0354 45.2402C46.0354 45.7184 46.8839 45.7184 47.2114 45.2402H47.2114ZM115.463 45.0595C115.684 45.24 115.699 45.129 115.497 44.8127C115.214 44.3697 114.971 44.3567 114.437 44.7562C114.057 45.0414 113.745 45.3744 113.745 45.4962C113.745 45.618 114.041 45.4957 114.404 45.2244C114.766 44.9532 115.243 44.8789 115.463 45.0595H115.463ZM100.441 44.17C100.398 43.4202 100.329 43.3654 100.16 43.9486C99.8491 45.0221 98.7903 44.9174 97.9196 43.7272C96.9124 42.3503 94.5739 40.2953 94.0142 40.2953C93.7599 40.2953 94.5627 41.2077 95.7984 42.323C97.034 43.4382 98.045 44.5342 98.045 44.7585C98.045 44.9828 98.597 45.1664 99.2716 45.1664C100.233 45.1664 100.486 44.9513 100.441 44.17L100.441 44.17ZM149.182 42.5317C147.94 39.4184 142.948 35.9098 138.768 35.2128C137.234 34.9571 134.278 35.33 131.614 36.1149C130.887 36.3292 130.95 36.1878 131.891 35.496C132.562 35.0029 133.193 34.674 133.294 34.765C133.395 34.8561 134.566 34.5436 135.895 34.0705C137.231 33.5952 139.496 33.2104 140.958 33.2104C143.434 33.2104 143.651 33.1218 144.374 31.8139C145.405 29.9492 145.397 29.9277 143.464 29.2968C141.996 28.8178 141.508 28.8638 139.635 29.6584C138.455 30.1592 136.65 31.4748 135.625 32.5821C134.599 33.6893 133.643 34.4896 133.5 34.3605C133.357 34.2314 133.923 33.4243 134.757 32.5669C137.239 30.015 137.99 25.3498 136.141 23.9651C135.636 23.5873 135.389 24.0398 134.959 26.1234C134.288 29.384 132.499 32.6625 129.809 35.5617C128.489 36.9845 128.122 37.5984 128.781 37.28C129.345 37.0075 129.982 36.9269 130.196 37.101C130.409 37.2751 130.446 37.1984 130.277 36.9305C130.064 36.5935 130.758 36.5014 132.528 36.6317C138.043 37.0374 142.147 39.0061 144.673 42.457C146.409 44.8281 148.046 45.4705 148.895 44.1137C149.203 43.6214 149.332 42.9097 149.182 42.5321L149.182 42.5317ZM46.0359 43.6088C47.0562 43.076 47.0974 42.9877 46.2812 43.0838C45.7415 43.1473 45.0392 43.3462 44.7205 43.5258C43.8401 44.022 43.4092 43.0109 44.1537 42.1961C44.7422 41.5522 44.6964 41.5331 43.7053 42.0097C42.4555 42.6108 42.3444 42.986 43.1902 43.7493C43.9436 44.4293 44.519 44.4009 46.0359 43.6088L46.0359 43.6088ZM39.9756 43.1854C39.823 42.8265 40.0753 42.3133 40.5364 42.0449C41.3033 41.5984 41.2981 41.5786 40.4758 41.8118C39.9815 41.9519 39.4848 42.0666 39.3719 42.0666C39.2591 42.0666 39.1667 42.4652 39.1667 42.9523C39.1667 43.4394 39.4111 43.8379 39.7099 43.8379C40.0086 43.8379 40.1281 43.5443 39.9756 43.1854V43.1854ZM41.947 43.1736C41.947 42.8083 41.763 42.5094 41.5381 42.5094C41.0481 42.5094 40.999 43.1299 41.4563 43.5426C41.9111 43.9531 41.947 43.9261 41.947 43.1736V43.1736ZM34.7508 42.5282C34.7508 42.3471 33.6787 41.5974 32.3682 40.8622C29.421 39.2086 25.8286 34.7783 24.7271 31.439C24.1161 29.5864 23.9371 27.3081 23.9788 21.9184C24.0649 10.7917 24.0523 10.6739 22.4376 7.53828C20.5377 3.84836 18.7661 1.77012 17.5205 1.77012C16.72 1.77012 16.5966 1.96035 16.8739 2.76646C17.0624 3.31445 17.6453 4.31208 18.1692 4.98339C21.0985 8.73704 22.6292 15.4047 22.1786 22.4477C21.731 29.4439 23.4329 34.422 27.6693 38.5097C28.9394 39.7352 29.7557 40.7379 29.4833 40.7379C28.4597 40.7379 24.7973 36.5813 23.3106 33.7325C21.9011 31.0315 21.7429 30.2747 21.4891 25.0178C21.2489 20.045 21.0339 18.914 19.9098 16.7097C18.6848 14.3074 17.464 13.2391 16.7157 13.9144C16.5343 14.0782 16.9761 15.7467 17.6977 17.6223C18.5825 19.9227 19.0937 22.3419 19.2683 25.0551C19.5493 29.422 20.3745 32.0636 22.2656 34.6492C22.9336 35.5625 23.2724 36.3098 23.0185 36.3098C22.1912 36.3098 19.5669 31.6314 18.8939 28.9572C18.1203 25.8829 16.9314 25.3765 16.6896 28.0182C16.4772 30.3391 18.4727 34.0715 21.1751 36.4074C23.3166 38.2587 30.8534 42.296 30.0919 41.1841C29.8381 40.8134 29.939 40.6926 30.3893 40.8281C30.7641 40.9409 31.0709 41.249 31.0709 41.5129C31.0709 41.7767 31.2718 42.1586 31.5175 42.3616C31.7812 42.5795 31.8035 42.4804 31.5719 42.1197C31.302 41.6993 31.3922 41.5784 31.8612 41.7322C32.236 41.8551 32.4902 42.1727 32.426 42.438C32.3586 42.7164 32.6518 42.8015 33.1197 42.6395C33.6599 42.4524 33.8131 42.5299 33.579 42.8717C33.3495 43.2069 33.4917 43.2933 33.9892 43.121C34.408 42.976 34.7506 42.7091 34.7506 42.528L34.7508 42.5282ZM37.0781 42.9151C36.4009 42.5592 36.3258 42.2774 36.7274 41.6001C37.0854 40.9965 37.0817 40.7381 36.7153 40.7381C36.0231 40.7381 35.5548 41.8964 35.9095 42.7308C36.0648 43.0962 36.5852 43.389 37.066 43.3816C37.8964 43.3688 37.897 43.3455 37.0781 42.9151H37.0781ZM49.6751 43.1263C50.102 42.9784 50.4512 42.6725 50.4512 42.4464C50.4512 42.2204 49.9762 42.2649 49.3956 42.5453C48.4964 42.9797 48.385 42.9492 48.6442 42.3395C48.8116 41.9459 48.7583 41.6238 48.5258 41.6238C47.986 41.6238 47.4811 42.7809 47.8683 43.1303C48.2399 43.4657 48.698 43.4647 49.6751 43.1263L49.6751 43.1263ZM102.457 42.1134C102.457 41.673 102.033 41.3406 101.418 41.2988C100.419 41.2308 100.414 41.2522 101.295 41.8547C102.807 42.888 101.241 42.5895 98.9504 41.4077C95.7778 39.7708 95.4545 40.063 98.5541 41.766C101.328 43.2901 102.457 43.3906 102.457 42.1134L102.457 42.1134ZM53.6257 41.3288C54.158 41.0039 54.423 40.7381 54.2147 40.7381C53.698 40.7381 50.9408 42.0413 50.9408 42.2855C50.9408 42.5708 52.5027 42.0142 53.6258 41.3288H53.6257ZM107.252 41.9836C107.145 41.6944 106.795 41.3788 106.475 41.2823C106.116 41.1745 106.007 41.3769 106.19 41.8082C106.532 42.6131 107.546 42.7806 107.252 41.9836L107.252 41.9836ZM120.611 41.2418C121.286 40.8735 122.235 40.271 122.72 39.903C123.205 39.535 123.942 39.1889 124.358 39.1339C124.773 39.0789 125.498 38.7194 125.969 38.3351C126.439 37.9509 126.916 37.6867 127.029 37.7481C127.143 37.8096 127.187 37.7833 127.128 37.6898C127.07 37.5964 127.843 36.6777 128.847 35.6484C132.314 32.0938 134.318 26.6933 132.975 24.5266C132.503 23.7658 132.433 23.7852 131.969 24.8063C131.694 25.4099 130.997 27.2986 130.419 29.0035C129.214 32.5611 126.596 37.0362 124.973 38.3142C124.132 38.9763 124.238 38.7051 125.41 37.1957C127.496 34.5098 129.245 30.1327 130.222 25.1536C130.667 22.887 131.595 19.8699 132.285 18.4494C133.319 16.318 133.419 15.7997 132.856 15.4856C131.974 14.9935 131.152 15.6252 129.717 17.8975C128.854 19.2659 128.507 20.6707 128.288 23.6895C127.703 31.7435 124.258 38.183 118.637 41.7251C117.701 42.3152 117.647 42.4244 118.403 42.2011C118.943 42.0417 119.936 41.61 120.611 41.2416L120.611 41.2418ZM35.2412 41.2347C35.2412 41.0207 34.5812 40.5989 33.7746 40.2974C32.9679 39.9958 31.5424 38.9843 30.6067 38.0495C27.0509 34.4972 25.6248 30.2426 26.1137 24.6431C27.0182 14.2803 27.0379 9.01424 26.1808 6.68546C25.2656 4.19867 23.2967 1.77016 22.1958 1.77016C21.2604 1.77016 21.3239 2.37346 22.4732 4.40671C24.2593 7.56667 24.6186 10.1098 24.6653 19.9258C24.6952 26.2134 24.9216 30.0836 25.3321 31.3226C26.2583 34.119 29.7785 38.4648 32.4767 40.1431C35.055 41.7467 35.241 41.8203 35.241 41.2349L35.2412 41.2347ZM39.2889 41.3305C38.9516 41.2077 38.3996 41.2077 38.0623 41.3305C37.725 41.4534 38.001 41.5539 38.6756 41.5539C39.3502 41.5539 39.6262 41.4534 39.2889 41.3305ZM47.6267 38.7247C44.3613 37.9312 42.6699 36.9337 42.2936 35.5797C41.9211 34.2405 40.6484 33.5865 39.522 34.1555C38.2236 34.8113 38.5053 35.7046 40.4279 37.0281C42.3501 38.3513 45.8145 39.3495 48.4885 39.3507C50.0442 39.3514 49.9631 39.2925 47.6267 38.7247V38.7247ZM20.2067 36.4121C19.1586 35.4941 17.5692 33.3601 16.6747 31.67C15.2996 29.0718 15.0733 28.2007 15.2094 26.032C15.298 24.6211 15.2016 23.4671 14.9953 23.4675C14.7889 23.468 14.1695 24.1159 13.6187 24.9075C12.1116 27.0735 12.5369 29.883 14.803 32.7299C16.7934 35.2304 16.4157 35.8692 14.3747 33.4541C13.0102 31.8395 9.64543 30.1107 7.86748 30.1107C6.35171 30.1107 5.07847 31.9882 5.78562 33.1808C6.22032 33.9138 6.80467 34.0961 8.72059 34.0961C10.0363 34.0961 12.4556 34.4733 14.097 34.9343C15.7381 35.3953 16.9591 35.5946 16.8102 35.3771C16.2947 34.6243 17.0894 34.9885 19.3292 36.5316C22.2535 38.5462 22.5909 38.5004 20.207 36.4123L20.2067 36.4121ZM75.9574 35.6718C75.9533 35.414 75.7562 34.9269 75.5195 34.5896C74.8928 33.6964 73.8462 35.611 74.2827 36.8523C74.6063 37.7725 74.6397 37.7765 75.2911 36.9724C75.6617 36.515 75.9615 35.9297 75.9574 35.6718L75.9574 35.6718ZM107.856 36.2943C108.8 35.8676 109.978 35.1147 110.472 34.6211C111.346 33.7489 111.344 33.7101 110.382 33.2455C108.83 32.496 108.442 32.6484 107.132 34.5219C106.457 35.4869 105.295 36.5835 104.55 36.9589L103.195 37.6413L104.667 37.3556C105.476 37.1985 106.911 36.7209 107.856 36.2943H107.856ZM122.279 35.0707C122.669 34.3891 123.49 32.5459 124.103 30.9746C125.109 28.3934 125.243 27.0501 125.491 17.0475C125.749 6.59742 125.826 5.88271 126.868 4.29122C127.475 3.364 127.972 2.31784 127.972 1.96642C127.972 0.915785 126.279 1.24188 124.967 2.54523C122.35 5.14484 122.098 6.98626 123.367 14.2171C124.526 20.8235 124.143 28.831 122.464 33.0998C121.144 36.4572 121.077 37.1688 122.279 35.0709L122.279 35.0707ZM127.467 5.53421C127.467 5.29066 127.253 5.3903 126.991 5.75562C126.729 6.12095 126.515 6.61912 126.515 6.86267C126.515 7.10622 126.729 7.00659 126.991 6.64126C127.253 6.27594 127.467 5.77777 127.467 5.53421Z" fill="#FF0000"/>
</svg>
