<svg width="64" height="65" viewBox="0 0 64 65" fill="none" xmlns="http://www.w3.org/2000/svg">
<g clip-path="url(#clip0)">
<path d="M32.5 64.3817C31.6305 64.3817 30.8189 64.1469 30.0653 63.7361L22.355 59.0998C21.1957 58.4543 21.7753 58.2195 22.1232 58.1021C23.6883 57.574 23.9782 57.4566 25.6013 56.5174C25.7754 56.4001 26.0073 56.4587 26.181 56.5761L32.0942 60.1561C32.3261 60.2735 32.6159 60.2735 32.7898 60.1561L55.9205 46.5994C56.1523 46.482 56.2683 46.2473 56.2683 45.9539V18.8987C56.2683 18.6053 56.1523 18.3705 55.9205 18.2532L32.7898 4.75494C32.558 4.63757 32.2681 4.63757 32.0942 4.75494L8.96359 18.2534C8.73172 18.3708 8.61578 18.6642 8.61578 18.8989V45.9539C8.61578 46.1886 8.73172 46.482 8.96359 46.5994L15.2826 50.2966C18.703 52.0571 20.8476 50.0032 20.8476 47.9492V21.2461C20.8476 20.894 21.1377 20.5419 21.5435 20.5419H24.5001C24.8479 20.5419 25.1957 20.8353 25.1957 21.2461V47.949C25.1957 52.5853 22.7028 55.2848 18.355 55.2848C17.0217 55.2848 15.9783 55.2848 13.0218 53.8177L6.93469 50.2966C5.4275 49.4161 4.5 47.7729 4.5 46.0123V18.9576C4.5 17.1971 5.4275 15.5539 6.93469 14.6734L30.0653 1.11668C31.5145 0.29509 33.4855 0.29509 34.9347 1.11668L58.0653 14.6734C59.5725 15.5537 60.5 17.1968 60.5 18.9576V46.0126C60.5 47.7731 59.5725 49.4163 58.0653 50.2966L34.9347 63.8537C34.1811 64.2058 33.3116 64.3819 32.5 64.3819V64.3817ZM39.6304 45.7776C29.4854 45.7776 27.3985 41.0828 27.3985 37.092C27.3985 36.7399 27.6884 36.3878 28.0942 36.3878H31.1085C31.4563 36.3878 31.7464 36.6225 31.7464 36.9746C32.2102 40.0849 33.5434 41.611 39.6883 41.611C44.5579 41.611 46.645 40.4959 46.645 37.8551C46.645 36.3291 46.0653 35.2141 38.471 34.4509C32.1522 33.8054 28.2101 32.397 28.2101 27.2913C28.2101 22.5374 32.152 19.7205 38.7608 19.7205C46.1811 19.7205 49.8333 22.3027 50.2971 27.9367C50.2971 28.1127 50.2391 28.2888 50.1232 28.4648C50.0072 28.5822 49.8333 28.6996 49.6594 28.6996H46.645C46.355 28.6996 46.0653 28.4648 46.0072 28.1714C45.3115 24.9437 43.5145 23.8874 38.7608 23.8874C33.4277 23.8874 32.7898 25.7653 32.7898 27.1738C32.7898 28.8758 33.5434 29.4038 40.7318 30.3428C47.8624 31.2817 51.2246 32.6317 51.2246 37.6788C51.1666 42.8433 46.9928 45.7776 39.6304 45.7776V45.7776Z" fill="#539E43"/>
</g>
<defs>
<clipPath id="clip0">
<rect width="56" height="64" fill="white" transform="translate(4.5 0.5)"/>
</clipPath>
</defs>
</svg>
