<?xml version="1.0" encoding="UTF-8"?><svg version="1.1" id="Layer_1" xmlns="http://www.w3.org/2000/svg" xmlns:xlink="http://www.w3.org/1999/xlink" x="0px" y="0px" viewBox="0 0 1000 1000" style="enable-background:new 0 0 1000 1000;" xml:space="preserve" width="1000px" height="1000px">

<path d="M582.2,466.1l68.2-0.9c0.9-0.1,1.6-0.7,1.8-1.5l5-14.2c0.6-1.6-0.4-3.5-1.8-3.5h-67.2c-0.8,0-1.5,0.6-1.8,1.4
	l-6,15.1C579.7,464.1,580.7,466.1,582.2,466.1z" style="fill:#32539A;stroke:#32539A;stroke-width:6;stroke-linecap:round;stroke-linejoin:round;"/>
<path d="M654.4,474h-83c-4.7,0-8.5,3.8-8.5,8.5s3.8,8.5,8.5,8.5h83c4.7,0,8.5-3.8,8.5-8.5S659.1,474,654.4,474z" style="fill:#32539A;stroke:#32539A;stroke-width:6;stroke-linecap:round;stroke-linejoin:round;"/>
<path d="M372,687.1c0,5.9,4.3,10.9,10.1,11.7c86.1,12.6,173.6,12.6,259.7,0c5.8-0.9,10.1-5.8,10.1-11.7V494.3H372V687.1
	z" style="fill:#32539A;stroke:#32539A;stroke-width:6;stroke-linecap:round;stroke-linejoin:round;"/>
<path d="M360,480v192.8c0,5.9,4.3,10.9,10.1,11.7c86.1,12.6,173.6,12.6,259.7,0c5.8-0.9,10.1-5.8,10.1-11.7V480H360z" style="fill:#B4CAE9;"/>
<g>
	<path d="M500,697c-43.5,0-87.1-3.2-130.3-9.5c-7.2-1.1-12.7-7.4-12.7-14.7V480c0-1.7,1.3-3,3-3h280c1.7,0,3,1.3,3,3
		v192.8c0,7.3-5.5,13.6-12.7,14.7C587.1,693.8,543.5,697,500,697z M363,483v189.8c0,4.4,3.3,8.1,7.6,8.8c85.9,12.6,173,12.6,258.9,0
		c4.3-0.6,7.6-4.4,7.6-8.8V483H363z" style="fill:#31306B;"/>
</g>
<path d="M500,684c-43.1,0-86.1-3.1-128.7-9.4c-1.9-0.3-3.3-1.9-3.3-3.8V490.8c0-2.6,2.1-4.8,4.8-4.8l0,0h254.5
	c2.6,0,4.8,2.1,4.8,4.8l0,0v180.1c0,1.9-1.4,3.5-3.3,3.8C586.1,680.8,543.1,684,500,684z" style="fill:#F3F8FF;"/>
<path d="M360,456l-7.8-164.9l-0.5-10c98.4-13.5,198.2-13.5,296.6,0l-0.5,10L640,456H360z" style="fill:#334684;"/>
<path d="M397.7,425.3c-4.4,0-8-3.5-8.1-7.9l-2.6-111.9c-0.1-4.5,3.4-8.2,7.9-8.3c0.1,0,0.1,0,0.2,0h209.7
	c4.5,0,8.1,3.6,8.1,8.1c0,0.1,0,0.1,0,0.2l-2.6,111.9c-0.1,4.4-3.7,7.9-8.1,7.9L397.7,425.3z" style="opacity:0.3;fill:#2B3F77;enable-background:new    ;"/>
<path d="M602.3,420.3H397.7c-1.7,0-3-1.3-3.1-3l-2.6-111.9c0-1.7,1.3-3.1,3-3.2c0,0,0,0,0.1,0h209.7
	c1.7,0,3.1,1.4,3.1,3.1c0,0,0,0,0,0.1l-2.6,111.9C605.3,419,604,420.3,602.3,420.3z" style="fill:#31306B;"/>
<path d="M568.8,302.3c-1.6,0-2.9,1.2-3.1,2.7c-8,51.8-52.5,90.1-104.9,90.1h-63.5c-1.7,0-3.1,1.4-3.1,3.1c0,0,0,0,0,0.1
	l0.4,19.1c0,1.7,1.4,3,3.1,3h204.6c1.7,0,3-1.3,3.1-3l2.6-111.9c0-1.7-1.3-3.1-3-3.2c0,0,0,0-0.1,0L568.8,302.3z" style="fill:#2B2B60;"/>
<g>
	<path d="M640,459H360c-1.6,0-2.9-1.3-3-2.9l-8.3-174.9c-0.1-1.6,1.1-2.9,2.6-3.1c98.7-13.5,198.7-13.5,297.4,0
		c1.5,0.2,2.7,1.6,2.6,3.1L643,456.1C642.9,457.7,641.6,459,640,459z M362.9,453h274.3l8-169.3c-96.3-12.9-194-12.9-290.3,0
		L362.9,453z" style="fill:#31306B;"/>
</g>
<path d="M531.6,608.3c-20-9.4-43.2-9.4-63.2,0v14.6h63.2V608.3z" style="fill:#B4CAE9;"/>
<path d="M468.4,609.3v3.9c20.2-8.7,43-8.7,63.2,0v-3.9C511.6,599.9,488.4,599.9,468.4,609.3z" style="fill:#C4D9F2;"/>
<g>
	<path d="M531.6,624.9h-63.2c-1.1,0-2-0.9-2-2v-14.6c0-0.8,0.5-1.6,1.3-1.9c19.9-7.6,43.4-7.6,64.6,0
		c0.8,0.3,1.3,1,1.3,1.9v14.6C533.6,624,532.7,624.9,531.6,624.9z M470.4,620.9h59.2v-11.2c-19.5-6.7-40.9-6.7-59.2,0V620.9z" style="fill:#31306B;"/>
</g>
<ellipse transform="matrix(0.9239 -0.3827 0.3827 0.9239 -199.6412 238.6234)" cx="500" cy="621.1" rx="12.4" ry="12.4" style="fill:#94B7E0;"/>
<g>
	<path d="M500,635.1c-7.7,0-13.9-6.2-13.9-13.9s6.2-13.9,13.9-13.9c7.7,0,13.9,6.2,13.9,13.9S507.7,635.1,500,635.1z
		 M500,610.2c-6,0-10.9,4.9-10.9,10.9s4.9,10.9,10.9,10.9c6,0,10.9-4.9,10.9-10.9S506,610.2,500,610.2z" style="fill:#31306B;"/>
</g>
<path d="M511.9,645c-7.4,4.2-16.4,4.2-23.8,0h-19.7v14.6c20,9.4,43.2,9.4,63.2,0V645H511.9z" style="fill:#C4D9F2;"/>
<path d="M468.4,654.1v5.5c20,9.4,43.2,9.4,63.2,0v-5.5C511.6,663.5,488.4,663.5,468.4,654.1z" style="fill:#A2BDDD;"/>
<g>
	<path d="M500,668.7c-11.1,0-22.1-2.4-32.5-7.3c-0.7-0.3-1.1-1-1.1-1.8V645c0-1.1,0.9-2,2-2h19.7c0.3,0,0.7,0.1,1,0.3
		c6.7,3.8,15.1,3.8,21.8,0c0.3-0.2,0.6-0.3,1-0.3h19.7c1.1,0,2,0.9,2,2v14.6c0,0.8-0.4,1.5-1.1,1.8
		C522.2,666.3,511.1,668.7,500,668.7z M470.4,658.3c18.9,8.5,40.3,8.5,59.2,0V647h-17.2c-7.7,4.2-17.1,4.2-24.8,0h-17.2V658.3z" style="fill:#31306B;"/>
</g>
<circle cx="500" cy="621.1" r="9.8" style="fill:#31306B;"/>
<path d="M505.9,613.4c1.5,6.3-2.4,12.7-8.8,14.2c-1.4,0.3-2.9,0.4-4.4,0.2c3.6,4,9.8,4.3,13.8,0.6s4.3-9.8,0.6-13.8
	C506.8,614.1,506.4,613.7,505.9,613.4z" style="fill:#28285B;"/>
<g>
	<path d="M494.4,622.1C494.4,622.1,494.4,622.1,494.4,622.1c-0.6,0-1-0.4-1-1c0-3.7,3-6.6,6.6-6.6c0.6,0,1,0.4,1,1
		s-0.4,1-1,1c-2.6,0-4.6,2.1-4.6,4.6C495.4,621.7,494.9,622.1,494.4,622.1z" style="fill:#F8F8FF;"/>
</g>
<g>
	<path d="M512.3,678.3h-24.6c-1.7,0-3-1.3-3-3s1.3-3,3-3h24.6c1.7,0,3,1.3,3,3S513.9,678.3,512.3,678.3z" style="fill:#31306B;"/>
</g>
<path d="M358.5,464h283c4.4,0,8,3.6,8,8l0,0c0,4.4-3.6,8-8,8h-283c-4.4,0-8-3.6-8-8l0,0
	C350.5,467.6,354.1,464,358.5,464z" style="fill:#94B7E0;"/>
<path d="M641.5,464h-283c-4.4,0-8,3.6-8,8h299C649.5,467.6,645.9,464,641.5,464z" style="fill:#81AAD3;"/>
<g>
	<path d="M641.5,483h-283c-6.1,0-11-4.9-11-11s4.9-11,11-11h283c6.1,0,11,4.9,11,11S647.6,483,641.5,483z M358.5,467
		c-2.8,0-5,2.2-5,5s2.2,5,5,5h283c2.8,0,5-2.2,5-5s-2.2-5-5-5H358.5z" style="fill:#31306B;"/>
</g>
<circle cx="563.7" cy="440.3" r="8.5" style="fill:#2B2B60;"/>
<circle cx="563.7" cy="440.3" r="7.5" style="fill:#3A4F89;"/>
<circle cx="586.3" cy="440.3" r="8.5" style="fill:#2B2B60;"/>
<circle cx="586.3" cy="440.3" r="7.5" style="fill:#3A4F89;"/>
<rect x="399.2" y="456" width="44" height="24" style="fill:#3A4F89;"/>
<rect x="399.2" y="456" width="44" height="12" style="fill:#334684;"/>
<rect x="553" y="456" width="44" height="24" style="fill:#3A4F89;"/>
<rect x="553" y="456" width="44" height="12" style="fill:#334684;"/>
<g>
	<path d="M443.2,483h-44c-1.7,0-3-1.3-3-3v-24c0-1.7,1.3-3,3-3h44c1.7,0,3,1.3,3,3v24C446.2,481.7,444.9,483,443.2,483z
		 M402.2,477h38v-18h-38V477z" style="fill:#31306B;"/>
</g>
<g>
	<path d="M597,483h-44c-1.7,0-3-1.3-3-3v-24c0-1.7,1.3-3,3-3h44c1.7,0,3,1.3,3,3v24C600,481.7,598.6,483,597,483z
		 M556,477h38v-18h-38V477z" style="fill:#31306B;"/>
</g>
<g>
	<path d="M428,326.3h-13.7c-2.2,0-4-1.8-4-4s1.8-4,4-4H428c2.2,0,4,1.8,4,4S430.2,326.3,428,326.3z" style="fill:#D4E3F4;"/>
</g>
<g>
	<path d="M499,326.3h-52.5c-2.2,0-4-1.8-4-4s1.8-4,4-4H499c2.2,0,4,1.8,4,4S501.2,326.3,499,326.3z" style="fill:#D4E3F4;"/>
</g>
<g>
	<path d="M617,591H383c-1.7,0-3-1.3-3-3v-90c0-1.7,1.3-3,3-3h234c1.7,0,3,1.3,3,3v90C620,589.7,618.7,591,617,591z
		 M386,585h228v-84H386V585z" style="fill:#31306B;"/>
</g>
<rect x="599" y="498" width="18" height="18" style="fill:#B4CAE9;"/>
<rect x="581" y="498" width="18" height="18" style="fill:#B4CAE9;"/>
<rect x="563" y="498" width="18" height="18" style="fill:#B4CAE9;"/>
<rect x="545" y="498" width="18" height="18" style="fill:#B4CAE9;"/>
<rect x="527" y="498" width="18" height="18" style="fill:#B4CAE9;"/>
<rect x="509" y="498" width="18" height="18" style="fill:#B4CAE9;"/>
<rect x="491" y="498" width="18" height="18" style="fill:#B4CAE9;"/>
<rect x="473" y="498" width="18" height="18" style="fill:#B4CAE9;"/>
<rect x="455" y="498" width="18" height="18" style="fill:#B4CAE9;"/>
<rect x="437" y="498" width="18" height="18" style="fill:#B4CAE9;"/>
<rect x="419" y="498" width="18" height="18" style="fill:#B4CAE9;"/>
<rect x="401" y="498" width="18" height="18" style="fill:#B4CAE9;"/>
<rect x="383" y="498" width="18" height="18" style="fill:#B4CAE9;"/>
<rect x="590" y="516" width="27" height="18" style="fill:#B4CAE9;"/>
<rect x="572" y="516" width="18" height="18" style="fill:#B4CAE9;"/>
<rect x="554" y="516" width="18" height="18" style="fill:#B4CAE9;"/>
<rect x="536" y="516" width="18" height="18" style="fill:#B4CAE9;"/>
<rect x="518" y="516" width="18" height="18" style="fill:#B4CAE9;"/>
<rect x="500" y="516" width="18" height="18" style="fill:#B4CAE9;"/>
<rect x="482" y="516" width="18" height="18" style="fill:#B4CAE9;"/>
<rect x="464" y="516" width="18" height="18" style="fill:#B4CAE9;"/>
<rect x="446" y="516" width="18" height="18" style="fill:#B4CAE9;"/>
<rect x="428" y="516" width="18" height="18" style="fill:#B4CAE9;"/>
<rect x="410" y="516" width="18" height="18" style="fill:#B4CAE9;"/>
<rect x="383" y="516" width="27" height="18" style="fill:#B4CAE9;"/>
<rect x="572" y="552" width="45" height="18" style="fill:#B4CAE9;"/>
<rect x="554" y="552" width="18" height="18" style="fill:#B4CAE9;"/>
<rect x="536" y="552" width="18" height="18" style="fill:#B4CAE9;"/>
<rect x="518" y="552" width="18" height="18" style="fill:#B4CAE9;"/>
<rect x="500" y="552" width="18" height="18" style="fill:#B4CAE9;"/>
<rect x="482" y="552" width="18" height="18" style="fill:#B4CAE9;"/>
<rect x="464" y="552" width="18" height="18" style="fill:#B4CAE9;"/>
<rect x="446" y="552" width="18" height="18" style="fill:#B4CAE9;"/>
<rect x="428" y="552" width="18" height="18" style="fill:#B4CAE9;"/>
<rect x="383" y="552" width="45" height="18" style="fill:#B4CAE9;"/>
<rect x="581" y="534" width="36" height="18" style="fill:#B4CAE9;"/>
<rect x="563" y="534" width="18" height="18" style="fill:#B4CAE9;"/>
<rect x="545" y="534" width="18" height="18" style="fill:#B4CAE9;"/>
<rect x="527" y="534" width="18" height="18" style="fill:#B4CAE9;"/>
<rect x="509" y="534" width="18" height="18" style="fill:#B4CAE9;"/>
<rect x="491" y="534" width="18" height="18" style="fill:#B4CAE9;"/>
<rect x="473" y="534" width="18" height="18" style="fill:#B4CAE9;"/>
<rect x="455" y="534" width="18" height="18" style="fill:#B4CAE9;"/>
<rect x="437" y="534" width="18" height="18" style="fill:#B4CAE9;"/>
<rect x="419" y="534" width="18" height="18" style="fill:#B4CAE9;"/>
<rect x="383" y="534" width="36" height="18" style="fill:#B4CAE9;"/>
<rect x="599" y="570" width="18" height="18" style="fill:#B4CAE9;"/>
<rect x="581" y="570" width="18" height="18" style="fill:#B4CAE9;"/>
<rect x="563" y="570" width="18" height="18" style="fill:#B4CAE9;"/>
<rect x="545" y="570" width="18" height="18" style="fill:#B4CAE9;"/>
<rect x="451.2" y="570" width="93.8" height="18" style="fill:#B4CAE9;"/>
<rect x="419" y="570" width="32.2" height="18" style="fill:#B4CAE9;"/>
<rect x="401" y="570" width="18" height="18" style="fill:#B4CAE9;"/>
<rect x="383" y="570" width="18" height="18" style="fill:#B4CAE9;"/>
<g>
	<path d="M617,518h-18c-1.1,0-2-0.9-2-2v-18c0-1.1,0.9-2,2-2h18c1.1,0,2,0.9,2,2v18C619,517.1,618.1,518,617,518z
		 M601,514h14v-14h-14V514z" style="fill:#31306B;"/>
</g>
<g>
	<path d="M599,518h-18c-1.1,0-2-0.9-2-2v-18c0-1.1,0.9-2,2-2h18c1.1,0,2,0.9,2,2v18C601,517.1,600.1,518,599,518z
		 M583,514h14v-14h-14V514z" style="fill:#31306B;"/>
</g>
<g>
	<path d="M581,518h-18c-1.1,0-2-0.9-2-2v-18c0-1.1,0.9-2,2-2h18c1.1,0,2,0.9,2,2v18C583,517.1,582.1,518,581,518z
		 M565,514h14v-14h-14V514z" style="fill:#31306B;"/>
</g>
<g>
	<path d="M563,518h-18c-1.1,0-2-0.9-2-2v-18c0-1.1,0.9-2,2-2h18c1.1,0,2,0.9,2,2v18C565,517.1,564.1,518,563,518z
		 M547,514h14v-14h-14V514z" style="fill:#31306B;"/>
</g>
<g>
	<path d="M545,518h-18c-1.1,0-2-0.9-2-2v-18c0-1.1,0.9-2,2-2h18c1.1,0,2,0.9,2,2v18C547,517.1,546.1,518,545,518z
		 M529,514h14v-14h-14V514z" style="fill:#31306B;"/>
</g>
<g>
	<path d="M527,518h-18c-1.1,0-2-0.9-2-2v-18c0-1.1,0.9-2,2-2h18c1.1,0,2,0.9,2,2v18C529,517.1,528.1,518,527,518z
		 M511,514h14v-14h-14V514z" style="fill:#31306B;"/>
</g>
<g>
	<path d="M509,518h-18c-1.1,0-2-0.9-2-2v-18c0-1.1,0.9-2,2-2h18c1.1,0,2,0.9,2,2v18C511,517.1,510.1,518,509,518z
		 M493,514h14v-14h-14V514z" style="fill:#31306B;"/>
</g>
<g>
	<path d="M491,518h-18c-1.1,0-2-0.9-2-2v-18c0-1.1,0.9-2,2-2h18c1.1,0,2,0.9,2,2v18C493,517.1,492.1,518,491,518z
		 M475,514h14v-14h-14V514z" style="fill:#31306B;"/>
</g>
<g>
	<path d="M473,518h-18c-1.1,0-2-0.9-2-2v-18c0-1.1,0.9-2,2-2h18c1.1,0,2,0.9,2,2v18C475,517.1,474.1,518,473,518z
		 M457,514h14v-14h-14V514z" style="fill:#31306B;"/>
</g>
<g>
	<path d="M455,518h-18c-1.1,0-2-0.9-2-2v-18c0-1.1,0.9-2,2-2h18c1.1,0,2,0.9,2,2v18C457,517.1,456.1,518,455,518z
		 M439,514h14v-14h-14V514z" style="fill:#31306B;"/>
</g>
<g>
	<path d="M437,518h-18c-1.1,0-2-0.9-2-2v-18c0-1.1,0.9-2,2-2h18c1.1,0,2,0.9,2,2v18C439,517.1,438.1,518,437,518z
		 M421,514h14v-14h-14V514z" style="fill:#31306B;"/>
</g>
<g>
	<path d="M419,518h-18c-1.1,0-2-0.9-2-2v-18c0-1.1,0.9-2,2-2h18c1.1,0,2,0.9,2,2v18C421,517.1,420.1,518,419,518z
		 M403,514h14v-14h-14V514z" style="fill:#31306B;"/>
</g>
<g>
	<path d="M401,518h-18c-1.1,0-2-0.9-2-2v-18c0-1.1,0.9-2,2-2h18c1.1,0,2,0.9,2,2v18C403,517.1,402.1,518,401,518z
		 M385,514h14v-14h-14V514z" style="fill:#31306B;"/>
</g>
<g>
	<path d="M617,536h-27c-1.1,0-2-0.9-2-2v-18c0-1.1,0.9-2,2-2h27c1.1,0,2,0.9,2,2v18C619,535.1,618.1,536,617,536z
		 M592,532h23v-14h-23V532z" style="fill:#31306B;"/>
</g>
<g>
	<path d="M590,536h-18c-1.1,0-2-0.9-2-2v-18c0-1.1,0.9-2,2-2h18c1.1,0,2,0.9,2,2v18C592,535.1,591.1,536,590,536z
		 M574,532h14v-14h-14V532z" style="fill:#31306B;"/>
</g>
<g>
	<path d="M572,536h-18c-1.1,0-2-0.9-2-2v-18c0-1.1,0.9-2,2-2h18c1.1,0,2,0.9,2,2v18C574,535.1,573.1,536,572,536z
		 M556,532h14v-14h-14V532z" style="fill:#31306B;"/>
</g>
<g>
	<path d="M554,536h-18c-1.1,0-2-0.9-2-2v-18c0-1.1,0.9-2,2-2h18c1.1,0,2,0.9,2,2v18C556,535.1,555.1,536,554,536z
		 M538,532h14v-14h-14V532z" style="fill:#31306B;"/>
</g>
<g>
	<path d="M536,536h-18c-1.1,0-2-0.9-2-2v-18c0-1.1,0.9-2,2-2h18c1.1,0,2,0.9,2,2v18C538,535.1,537.1,536,536,536z
		 M520,532h14v-14h-14V532z" style="fill:#31306B;"/>
</g>
<g>
	<path d="M518,536h-18c-1.1,0-2-0.9-2-2v-18c0-1.1,0.9-2,2-2h18c1.1,0,2,0.9,2,2v18C520,535.1,519.1,536,518,536z
		 M502,532h14v-14h-14V532z" style="fill:#31306B;"/>
</g>
<g>
	<path d="M500,536h-18c-1.1,0-2-0.9-2-2v-18c0-1.1,0.9-2,2-2h18c1.1,0,2,0.9,2,2v18C502,535.1,501.1,536,500,536z
		 M484,532h14v-14h-14V532z" style="fill:#31306B;"/>
</g>
<g>
	<path d="M482,536h-18c-1.1,0-2-0.9-2-2v-18c0-1.1,0.9-2,2-2h18c1.1,0,2,0.9,2,2v18C484,535.1,483.1,536,482,536z
		 M466,532h14v-14h-14V532z" style="fill:#31306B;"/>
</g>
<g>
	<path d="M464,536h-18c-1.1,0-2-0.9-2-2v-18c0-1.1,0.9-2,2-2h18c1.1,0,2,0.9,2,2v18C466,535.1,465.1,536,464,536z
		 M448,532h14v-14h-14V532z" style="fill:#31306B;"/>
</g>
<g>
	<path d="M446,536h-18c-1.1,0-2-0.9-2-2v-18c0-1.1,0.9-2,2-2h18c1.1,0,2,0.9,2,2v18C448,535.1,447.1,536,446,536z
		 M430,532h14v-14h-14V532z" style="fill:#31306B;"/>
</g>
<g>
	<path d="M428,536h-18c-1.1,0-2-0.9-2-2v-18c0-1.1,0.9-2,2-2h18c1.1,0,2,0.9,2,2v18C430,535.1,429.1,536,428,536z
		 M412,532h14v-14h-14V532z" style="fill:#31306B;"/>
</g>
<g>
	<path d="M410,536h-27c-1.1,0-2-0.9-2-2v-18c0-1.1,0.9-2,2-2h27c1.1,0,2,0.9,2,2v18C412,535.1,411.1,536,410,536z
		 M385,532h23v-14h-23V532z" style="fill:#31306B;"/>
</g>
<g>
	<path d="M617,572h-45c-1.1,0-2-0.9-2-2v-18c0-1.1,0.9-2,2-2h45c1.1,0,2,0.9,2,2v18C619,571.1,618.1,572,617,572z
		 M574,568h41v-14h-41V568z" style="fill:#31306B;"/>
</g>
<g>
	<path d="M572,572h-18c-1.1,0-2-0.9-2-2v-18c0-1.1,0.9-2,2-2h18c1.1,0,2,0.9,2,2v18C574,571.1,573.1,572,572,572z
		 M556,568h14v-14h-14V568z" style="fill:#31306B;"/>
</g>
<g>
	<path d="M554,572h-18c-1.1,0-2-0.9-2-2v-18c0-1.1,0.9-2,2-2h18c1.1,0,2,0.9,2,2v18C556,571.1,555.1,572,554,572z
		 M538,568h14v-14h-14V568z" style="fill:#31306B;"/>
</g>
<g>
	<path d="M536,572h-18c-1.1,0-2-0.9-2-2v-18c0-1.1,0.9-2,2-2h18c1.1,0,2,0.9,2,2v18C538,571.1,537.1,572,536,572z
		 M520,568h14v-14h-14V568z" style="fill:#31306B;"/>
</g>
<g>
	<path d="M518,572h-18c-1.1,0-2-0.9-2-2v-18c0-1.1,0.9-2,2-2h18c1.1,0,2,0.9,2,2v18C520,571.1,519.1,572,518,572z
		 M502,568h14v-14h-14V568z" style="fill:#31306B;"/>
</g>
<g>
	<path d="M500,572h-18c-1.1,0-2-0.9-2-2v-18c0-1.1,0.9-2,2-2h18c1.1,0,2,0.9,2,2v18C502,571.1,501.1,572,500,572z
		 M484,568h14v-14h-14V568z" style="fill:#31306B;"/>
</g>
<g>
	<path d="M482,572h-18c-1.1,0-2-0.9-2-2v-18c0-1.1,0.9-2,2-2h18c1.1,0,2,0.9,2,2v18C484,571.1,483.1,572,482,572z
		 M466,568h14v-14h-14V568z" style="fill:#31306B;"/>
</g>
<g>
	<path d="M464,572h-18c-1.1,0-2-0.9-2-2v-18c0-1.1,0.9-2,2-2h18c1.1,0,2,0.9,2,2v18C466,571.1,465.1,572,464,572z
		 M448,568h14v-14h-14V568z" style="fill:#31306B;"/>
</g>
<g>
	<path d="M446,572h-18c-1.1,0-2-0.9-2-2v-18c0-1.1,0.9-2,2-2h18c1.1,0,2,0.9,2,2v18C448,571.1,447.1,572,446,572z
		 M430,568h14v-14h-14V568z" style="fill:#31306B;"/>
</g>
<g>
	<path d="M428,572h-45c-1.1,0-2-0.9-2-2v-18c0-1.1,0.9-2,2-2h45c1.1,0,2,0.9,2,2v18C430,571.1,429.1,572,428,572z
		 M385,568h41v-14h-41V568z" style="fill:#31306B;"/>
</g>
<g>
	<path d="M617,554h-36c-1.1,0-2-0.9-2-2v-18c0-1.1,0.9-2,2-2h36c1.1,0,2,0.9,2,2v18C619,553.1,618.1,554,617,554z
		 M583,550h32v-14h-32V550z" style="fill:#31306B;"/>
</g>
<g>
	<path d="M581,554h-18c-1.1,0-2-0.9-2-2v-18c0-1.1,0.9-2,2-2h18c1.1,0,2,0.9,2,2v18C583,553.1,582.1,554,581,554z
		 M565,550h14v-14h-14V550z" style="fill:#31306B;"/>
</g>
<g>
	<path d="M563,554h-18c-1.1,0-2-0.9-2-2v-18c0-1.1,0.9-2,2-2h18c1.1,0,2,0.9,2,2v18C565,553.1,564.1,554,563,554z
		 M547,550h14v-14h-14V550z" style="fill:#31306B;"/>
</g>
<g>
	<path d="M545,554h-18c-1.1,0-2-0.9-2-2v-18c0-1.1,0.9-2,2-2h18c1.1,0,2,0.9,2,2v18C547,553.1,546.1,554,545,554z
		 M529,550h14v-14h-14V550z" style="fill:#31306B;"/>
</g>
<g>
	<path d="M527,554h-18c-1.1,0-2-0.9-2-2v-18c0-1.1,0.9-2,2-2h18c1.1,0,2,0.9,2,2v18C529,553.1,528.1,554,527,554z
		 M511,550h14v-14h-14V550z" style="fill:#31306B;"/>
</g>
<g>
	<path d="M509,554h-18c-1.1,0-2-0.9-2-2v-18c0-1.1,0.9-2,2-2h18c1.1,0,2,0.9,2,2v18C511,553.1,510.1,554,509,554z
		 M493,550h14v-14h-14V550z" style="fill:#31306B;"/>
</g>
<g>
	<path d="M491,554h-18c-1.1,0-2-0.9-2-2v-18c0-1.1,0.9-2,2-2h18c1.1,0,2,0.9,2,2v18C493,553.1,492.1,554,491,554z
		 M475,550h14v-14h-14V550z" style="fill:#31306B;"/>
</g>
<g>
	<path d="M473,554h-18c-1.1,0-2-0.9-2-2v-18c0-1.1,0.9-2,2-2h18c1.1,0,2,0.9,2,2v18C475,553.1,474.1,554,473,554z
		 M457,550h14v-14h-14V550z" style="fill:#31306B;"/>
</g>
<g>
	<path d="M455,554h-18c-1.1,0-2-0.9-2-2v-18c0-1.1,0.9-2,2-2h18c1.1,0,2,0.9,2,2v18C457,553.1,456.1,554,455,554z
		 M439,550h14v-14h-14V550z" style="fill:#31306B;"/>
</g>
<g>
	<path d="M437,554h-18c-1.1,0-2-0.9-2-2v-18c0-1.1,0.9-2,2-2h18c1.1,0,2,0.9,2,2v18C439,553.1,438.1,554,437,554z
		 M421,550h14v-14h-14V550z" style="fill:#31306B;"/>
</g>
<g>
	<path d="M419,554h-36c-1.1,0-2-0.9-2-2v-18c0-1.1,0.9-2,2-2h36c1.1,0,2,0.9,2,2v18C421,553.1,420.1,554,419,554z
		 M385,550h32v-14h-32V550z" style="fill:#31306B;"/>
</g>
<g>
	<path d="M617,590h-18c-1.1,0-2-0.9-2-2v-18c0-1.1,0.9-2,2-2h18c1.1,0,2,0.9,2,2v18C619,589.1,618.1,590,617,590z
		 M601,586h14v-14h-14V586z" style="fill:#31306B;"/>
</g>
<g>
	<path d="M599,590h-18c-1.1,0-2-0.9-2-2v-18c0-1.1,0.9-2,2-2h18c1.1,0,2,0.9,2,2v18C601,589.1,600.1,590,599,590z
		 M583,586h14v-14h-14V586z" style="fill:#31306B;"/>
</g>
<g>
	<path d="M581,590h-18c-1.1,0-2-0.9-2-2v-18c0-1.1,0.9-2,2-2h18c1.1,0,2,0.9,2,2v18C583,589.1,582.1,590,581,590z
		 M565,586h14v-14h-14V586z" style="fill:#31306B;"/>
</g>
<g>
	<path d="M563,590h-18c-1.1,0-2-0.9-2-2v-18c0-1.1,0.9-2,2-2h18c1.1,0,2,0.9,2,2v18C565,589.1,564.1,590,563,590z
		 M547,586h14v-14h-14V586z" style="fill:#31306B;"/>
</g>
<g>
	<path d="M545,590h-93.8c-1.1,0-2-0.9-2-2v-18c0-1.1,0.9-2,2-2H545c1.1,0,2,0.9,2,2v18C547,589.1,546.1,590,545,590z
		 M453.2,586H543v-14h-89.8V586z" style="fill:#31306B;"/>
</g>
<g>
	<path d="M451.2,590H419c-1.1,0-2-0.9-2-2v-18c0-1.1,0.9-2,2-2h32.2c1.1,0,2,0.9,2,2v18
		C453.2,589.1,452.3,590,451.2,590z M421,586h28.2v-14H421V586z" style="fill:#31306B;"/>
</g>
<g>
	<path d="M419,590h-18c-1.1,0-2-0.9-2-2v-18c0-1.1,0.9-2,2-2h18c1.1,0,2,0.9,2,2v18C421,589.1,420.1,590,419,590z
		 M403,586h14v-14h-14V586z" style="fill:#31306B;"/>
</g>
<g>
	<path d="M401,590h-18c-1.1,0-2-0.9-2-2v-18c0-1.1,0.9-2,2-2h18c1.1,0,2,0.9,2,2v18C403,589.1,402.1,590,401,590z
		 M385,586h14v-14h-14V586z" style="fill:#31306B;"/>
</g>
<g style="opacity:0.59;">
	<path d="M603,501h8c0.6,0,1,0.4,1,1v8c0,0.6-0.4,1-1,1h-8c-0.6,0-1-0.4-1-1v-8C602,501.4,602.4,501,603,501z" style="fill:#F3F8FF;"/>
	<path d="M585,501h8c0.6,0,1,0.4,1,1v8c0,0.6-0.4,1-1,1h-8c-0.6,0-1-0.4-1-1v-8C584,501.4,584.4,501,585,501z" style="fill:#F3F8FF;"/>
	<path d="M567,501h8c0.6,0,1,0.4,1,1v8c0,0.6-0.4,1-1,1h-8c-0.6,0-1-0.4-1-1v-8C566,501.4,566.4,501,567,501z" style="fill:#F3F8FF;"/>
	<path d="M549,501h8c0.6,0,1,0.4,1,1v8c0,0.6-0.4,1-1,1h-8c-0.6,0-1-0.4-1-1v-8C548,501.4,548.4,501,549,501z" style="fill:#F3F8FF;"/>
	<path d="M531,501h8c0.6,0,1,0.4,1,1v8c0,0.6-0.4,1-1,1h-8c-0.6,0-1-0.4-1-1v-8C530,501.4,530.4,501,531,501z" style="fill:#F3F8FF;"/>
	<path d="M513,501h8c0.6,0,1,0.4,1,1v8c0,0.6-0.4,1-1,1h-8c-0.6,0-1-0.4-1-1v-8C512,501.4,512.4,501,513,501z" style="fill:#F3F8FF;"/>
	<path d="M495,501h8c0.6,0,1,0.4,1,1v8c0,0.6-0.4,1-1,1h-8c-0.6,0-1-0.4-1-1v-8C494,501.4,494.4,501,495,501z" style="fill:#F3F8FF;"/>
	<path d="M477,501h8c0.6,0,1,0.4,1,1v8c0,0.6-0.4,1-1,1h-8c-0.6,0-1-0.4-1-1v-8C476,501.4,476.4,501,477,501z" style="fill:#F3F8FF;"/>
	<path d="M459,501h8c0.6,0,1,0.4,1,1v8c0,0.6-0.4,1-1,1h-8c-0.6,0-1-0.4-1-1v-8C458,501.4,458.4,501,459,501z" style="fill:#F3F8FF;"/>
	<path d="M441,501h8c0.6,0,1,0.4,1,1v8c0,0.6-0.4,1-1,1h-8c-0.6,0-1-0.4-1-1v-8C440,501.4,440.4,501,441,501z" style="fill:#F3F8FF;"/>
	<path d="M423,501h8c0.6,0,1,0.4,1,1v8c0,0.6-0.4,1-1,1h-8c-0.6,0-1-0.4-1-1v-8C422,501.4,422.4,501,423,501z" style="fill:#F3F8FF;"/>
	<path d="M405,501h8c0.6,0,1,0.4,1,1v8c0,0.6-0.4,1-1,1h-8c-0.6,0-1-0.4-1-1v-8C404,501.4,404.4,501,405,501z" style="fill:#F3F8FF;"/>
	<path d="M387,501h8c0.6,0,1,0.4,1,1v8c0,0.6-0.4,1-1,1h-8c-0.6,0-1-0.4-1-1v-8C386,501.4,386.4,501,387,501z" style="fill:#F3F8FF;"/>
	<path d="M594,519h17c0.6,0,1,0.4,1,1v8c0,0.6-0.4,1-1,1h-17c-0.6,0-1-0.4-1-1v-8C593,519.4,593.4,519,594,519z" style="fill:#F3F8FF;"/>
	<path d="M576,519h8c0.6,0,1,0.4,1,1v8c0,0.6-0.4,1-1,1h-8c-0.6,0-1-0.4-1-1v-8C575,519.4,575.4,519,576,519z" style="fill:#F3F8FF;"/>
	<path d="M558,519h8c0.6,0,1,0.4,1,1v8c0,0.6-0.4,1-1,1h-8c-0.6,0-1-0.4-1-1v-8C557,519.4,557.4,519,558,519z" style="fill:#F3F8FF;"/>
	<path d="M540,519h8c0.6,0,1,0.4,1,1v8c0,0.6-0.4,1-1,1h-8c-0.6,0-1-0.4-1-1v-8C539,519.4,539.4,519,540,519z" style="fill:#F3F8FF;"/>
	<path d="M522,519h8c0.6,0,1,0.4,1,1v8c0,0.6-0.4,1-1,1h-8c-0.6,0-1-0.4-1-1v-8C521,519.4,521.4,519,522,519z" style="fill:#F3F8FF;"/>
	<path d="M504,519h8c0.6,0,1,0.4,1,1v8c0,0.6-0.4,1-1,1h-8c-0.6,0-1-0.4-1-1v-8C503,519.4,503.4,519,504,519z" style="fill:#F3F8FF;"/>
	<path d="M486,519h8c0.6,0,1,0.4,1,1v8c0,0.6-0.4,1-1,1h-8c-0.6,0-1-0.4-1-1v-8C485,519.4,485.4,519,486,519z" style="fill:#F3F8FF;"/>
	<path d="M468,519h8c0.6,0,1,0.4,1,1v8c0,0.6-0.4,1-1,1h-8c-0.6,0-1-0.4-1-1v-8C467,519.4,467.4,519,468,519z" style="fill:#F3F8FF;"/>
	<path d="M450,519h8c0.6,0,1,0.4,1,1v8c0,0.6-0.4,1-1,1h-8c-0.6,0-1-0.4-1-1v-8C449,519.4,449.4,519,450,519z" style="fill:#F3F8FF;"/>
	<path d="M432,519h8c0.6,0,1,0.4,1,1v8c0,0.6-0.4,1-1,1h-8c-0.6,0-1-0.4-1-1v-8C431,519.4,431.4,519,432,519z" style="fill:#F3F8FF;"/>
	<path d="M414,519h8c0.6,0,1,0.4,1,1v8c0,0.6-0.4,1-1,1h-8c-0.6,0-1-0.4-1-1v-8C413,519.4,413.4,519,414,519z" style="fill:#F3F8FF;"/>
	<path d="M387,519h17c0.6,0,1,0.4,1,1v8c0,0.6-0.4,1-1,1h-17c-0.6,0-1-0.4-1-1v-8C386,519.4,386.4,519,387,519z" style="fill:#F3F8FF;"/>
	<path d="M576,555h35c0.6,0,1,0.4,1,1v8c0,0.6-0.4,1-1,1h-35c-0.6,0-1-0.4-1-1v-8C575,555.4,575.4,555,576,555z" style="fill:#F3F8FF;"/>
	<path d="M558,555h8c0.6,0,1,0.4,1,1v8c0,0.6-0.4,1-1,1h-8c-0.6,0-1-0.4-1-1v-8C557,555.4,557.4,555,558,555z" style="fill:#F3F8FF;"/>
	<path d="M540,555h8c0.6,0,1,0.4,1,1v8c0,0.6-0.4,1-1,1h-8c-0.6,0-1-0.4-1-1v-8C539,555.4,539.4,555,540,555z" style="fill:#F3F8FF;"/>
	<path d="M522,555h8c0.6,0,1,0.4,1,1v8c0,0.6-0.4,1-1,1h-8c-0.6,0-1-0.4-1-1v-8C521,555.4,521.4,555,522,555z" style="fill:#F3F8FF;"/>
	<path d="M504,555h8c0.6,0,1,0.4,1,1v8c0,0.6-0.4,1-1,1h-8c-0.6,0-1-0.4-1-1v-8C503,555.4,503.4,555,504,555z" style="fill:#F3F8FF;"/>
	<path d="M486,555h8c0.6,0,1,0.4,1,1v8c0,0.6-0.4,1-1,1h-8c-0.6,0-1-0.4-1-1v-8C485,555.4,485.4,555,486,555z" style="fill:#F3F8FF;"/>
	<path d="M468,555h8c0.6,0,1,0.4,1,1v8c0,0.6-0.4,1-1,1h-8c-0.6,0-1-0.4-1-1v-8C467,555.4,467.4,555,468,555z" style="fill:#F3F8FF;"/>
	<path d="M450,555h8c0.6,0,1,0.4,1,1v8c0,0.6-0.4,1-1,1h-8c-0.6,0-1-0.4-1-1v-8C449,555.4,449.4,555,450,555z" style="fill:#F3F8FF;"/>
	<path d="M432,555h8c0.6,0,1,0.4,1,1v8c0,0.6-0.4,1-1,1h-8c-0.6,0-1-0.4-1-1v-8C431,555.4,431.4,555,432,555z" style="fill:#F3F8FF;"/>
	<path d="M387,555h35c0.6,0,1,0.4,1,1v8c0,0.6-0.4,1-1,1h-35c-0.6,0-1-0.4-1-1v-8C386,555.4,386.4,555,387,555z" style="fill:#F3F8FF;"/>
	<path d="M585,537h26c0.6,0,1,0.4,1,1v8c0,0.6-0.4,1-1,1h-26c-0.6,0-1-0.4-1-1v-8C584,537.4,584.4,537,585,537z" style="fill:#F3F8FF;"/>
	<path d="M567,537h8c0.6,0,1,0.4,1,1v8c0,0.6-0.4,1-1,1h-8c-0.6,0-1-0.4-1-1v-8C566,537.4,566.4,537,567,537z" style="fill:#F3F8FF;"/>
	<path d="M549,537h8c0.6,0,1,0.4,1,1v8c0,0.6-0.4,1-1,1h-8c-0.6,0-1-0.4-1-1v-8C548,537.4,548.4,537,549,537z" style="fill:#F3F8FF;"/>
	<path d="M531,537h8c0.6,0,1,0.4,1,1v8c0,0.6-0.4,1-1,1h-8c-0.6,0-1-0.4-1-1v-8C530,537.4,530.4,537,531,537z" style="fill:#F3F8FF;"/>
	<path d="M513,537h8c0.6,0,1,0.4,1,1v8c0,0.6-0.4,1-1,1h-8c-0.6,0-1-0.4-1-1v-8C512,537.4,512.4,537,513,537z" style="fill:#F3F8FF;"/>
	<path d="M495,537h8c0.6,0,1,0.4,1,1v8c0,0.6-0.4,1-1,1h-8c-0.6,0-1-0.4-1-1v-8C494,537.4,494.4,537,495,537z" style="fill:#F3F8FF;"/>
	<path d="M477,537h8c0.6,0,1,0.4,1,1v8c0,0.6-0.4,1-1,1h-8c-0.6,0-1-0.4-1-1v-8C476,537.4,476.4,537,477,537z" style="fill:#F3F8FF;"/>
	<path d="M459,537h8c0.6,0,1,0.4,1,1v8c0,0.6-0.4,1-1,1h-8c-0.6,0-1-0.4-1-1v-8C458,537.4,458.4,537,459,537z" style="fill:#F3F8FF;"/>
	<path d="M441,537h8c0.6,0,1,0.4,1,1v8c0,0.6-0.4,1-1,1h-8c-0.6,0-1-0.4-1-1v-8C440,537.4,440.4,537,441,537z" style="fill:#F3F8FF;"/>
	<path d="M423,537h8c0.6,0,1,0.4,1,1v8c0,0.6-0.4,1-1,1h-8c-0.6,0-1-0.4-1-1v-8C422,537.4,422.4,537,423,537z" style="fill:#F3F8FF;"/>
	<path d="M387,537h26c0.6,0,1,0.4,1,1v8c0,0.6-0.4,1-1,1h-26c-0.6,0-1-0.4-1-1v-8C386,537.4,386.4,537,387,537z" style="fill:#F3F8FF;"/>
	<path d="M603,573h8c0.6,0,1,0.4,1,1v8c0,0.6-0.4,1-1,1h-8c-0.6,0-1-0.4-1-1v-8C602,573.4,602.4,573,603,573z" style="fill:#F3F8FF;"/>
	<path d="M585,573h8c0.6,0,1,0.4,1,1v8c0,0.6-0.4,1-1,1h-8c-0.6,0-1-0.4-1-1v-8C584,573.4,584.4,573,585,573z" style="fill:#F3F8FF;"/>
	<path d="M567,573h8c0.6,0,1,0.4,1,1v8c0,0.6-0.4,1-1,1h-8c-0.6,0-1-0.4-1-1v-8C566,573.4,566.4,573,567,573z" style="fill:#F3F8FF;"/>
	<path d="M549,573h8c0.6,0,1,0.4,1,1v8c0,0.6-0.4,1-1,1h-8c-0.6,0-1-0.4-1-1v-8C548,573.4,548.4,573,549,573z" style="fill:#F3F8FF;"/>
	<path d="M455.2,573H539c0.6,0,1,0.4,1,1v8c0,0.6-0.4,1-1,1h-83.8c-0.6,0-1-0.4-1-1v-8C454.2,573.4,454.6,573,455.2,573
		z" style="fill:#F3F8FF;"/>
	<path d="M423,573h22.2c0.6,0,1,0.4,1,1v8c0,0.6-0.4,1-1,1H423c-0.6,0-1-0.4-1-1v-8C422,573.4,422.4,573,423,573z" style="fill:#F3F8FF;"/>
	<path d="M405,573h8c0.6,0,1,0.4,1,1v8c0,0.6-0.4,1-1,1h-8c-0.6,0-1-0.4-1-1v-8C404,573.4,404.4,573,405,573z" style="fill:#F3F8FF;"/>
	<path d="M387,573h8c0.6,0,1,0.4,1,1v8c0,0.6-0.4,1-1,1h-8c-0.6,0-1-0.4-1-1v-8C386,573.4,386.4,573,387,573z" style="fill:#F3F8FF;"/>
</g>
<path d="M412.6,430.1c-0.2,0-0.4,0-0.7,0c-2.1,0-4.2,1-5.5,2.7h6.9C413,432,412.7,431.1,412.6,430.1z" style="fill:#8DE57A;"/>
<path d="M416.3,435.6c-1.2-0.6-2.2-1.6-2.9-2.9h-6.9c-0.7,0.8-1.1,1.8-1.3,2.9H416.3z" style="fill:#FFD261;"/>
<path d="M416.3,435.6h-11.2c-0.2,0.9-0.2,1.9,0,2.9h13.6c0.1-0.5,0.2-1,0.2-1.4c0-0.2,0-0.4,0-0.7
	C418,436.3,417.1,436.1,416.3,435.6z" style="fill:#FF795A;"/>
<path d="M417.4,441.4c0.7-0.8,1.1-1.8,1.3-2.9h-13.6c0.2,1,0.7,2,1.3,2.9H417.4z" style="fill:#D856C9;"/>
<path d="M412,444c2.1,0,4.1-1,5.5-2.7h-10.9C407.8,443,409.8,444,412,444z" style="fill:#6388E1;"/>
<g>
	<path d="M456.3,437.6h-29.8c-1.1,0-2-0.9-2-2s0.9-2,2-2h29.8c1.1,0,2,0.9,2,2S457.4,437.6,456.3,437.6z" style="fill:#31306B;"/>
</g>
<g>
	<path d="M441.4,442.9h-15.8c-0.6,0-1-0.4-1-1s0.4-1,1-1h15.8c0.6,0,1,0.4,1,1S442,442.9,441.4,442.9z" style="fill:#31306B;"/>
</g>
<g>
	<path d="M527,283.3C527,283.3,527,283.3,527,283.3c-9-0.2-18.1-0.3-27-0.3c-8.9,0-18,0.1-26.9,0.3
		c-1.6,0-3-1.3-3.1-2.9c0-1.7,1.3-3,2.9-3.1c9-0.2,18.1-0.3,27.1-0.3c9,0,18.1,0.1,27.1,0.3c1.7,0,3,1.4,2.9,3.1
		C530,282,528.6,283.3,527,283.3z" style="fill:#31306B;"/>
</g>
<path d="M494.2,279h11.6c1.6,0,2.8,1.3,2.8,2.8v0v1.6c0,1.6-1.3,2.8-2.8,2.8h0h-11.6c-1.6,0-2.8-1.3-2.8-2.8v-1.6
	C491.4,280.3,492.6,279,494.2,279z" style="fill:#31306B;"/>
</svg>