<svg width="35" height="35" viewBox="0 0 35 35" fill="none" xmlns="http://www.w3.org/2000/svg">
<path d="M17.5 0C7.8306 0 0 7.83234 0 17.5C0 27.1677 7.8306 35 17.5 35C27.1628 35 35 27.1677 35 17.5C35 7.83234 27.1639 0 17.4945 0H17.5ZM17.5 0.768906C21.9641 0.768906 26.1689 2.51234 29.3292 5.66781C32.4803 8.81161 34.2431 13.0676 34.2301 17.5C34.2301 21.9658 32.4894 26.1702 29.3292 29.3322C27.7841 30.8865 25.9424 32.1201 23.9114 32.9612C21.8805 33.8023 19.701 34.234 17.5 34.2311C15.299 34.234 13.1195 33.8023 11.0886 32.9612C9.05761 32.1201 7.21589 30.8865 5.67082 29.3322C2.51822 26.1889 0.753441 21.933 0.764419 17.5C0.764419 13.0342 2.51056 8.82984 5.6653 5.66781C7.20979 4.11126 9.05217 2.87615 11.0844 2.03492C13.1166 1.19369 15.2978 0.763273 17.5 0.768906ZM16.6209 6.92672C13.7717 7.68469 11.1343 9.13719 7.61881 13.1359C4.10337 17.1347 4.76962 20.4389 4.76962 20.4389C4.76962 20.4389 5.74031 18.1661 8.07327 15.773C9.18185 14.6398 10.0036 14.2581 10.5728 14.2581C10.6928 14.252 10.8127 14.2702 10.9254 14.3116C11.0381 14.3529 11.1411 14.4165 11.2282 14.4986C11.3153 14.5806 11.3846 14.6794 11.432 14.7889C11.4794 14.8983 11.5038 15.0162 11.5038 15.1353V23.2531C11.5038 24.0559 10.9809 24.2331 10.4989 24.2211C10.0908 24.2156 9.71131 24.0734 9.71131 24.0734C12.1072 27.5253 17.8408 28.0098 17.8408 28.0098L20.3569 25.3433L20.4143 25.3947L22.7186 27.3427C26.9356 24.8588 28.9696 20.2563 28.9696 20.2563C27.0856 22.2272 25.8899 22.6887 25.1773 22.6887C24.5452 22.6833 24.2981 22.318 24.2981 22.318C24.2639 22.1473 24.2066 19.6744 24.1834 17.2025C24.1603 14.6442 24.1834 12.0816 24.3103 12.075C25.0394 10.7188 27.3613 7.98438 27.3613 7.98438C23.0241 8.83313 20.6625 11.6528 20.6625 11.6528C19.962 11.1059 18.5369 11.1967 18.5369 11.1967C19.2031 11.5609 19.8694 12.6208 19.8694 13.498V22.1342C19.8694 22.1342 18.4155 23.4041 17.2959 23.4041C17.0424 23.4064 16.7919 23.348 16.5659 23.234C16.3399 23.1199 16.145 22.9535 15.9976 22.7489C15.9093 22.633 15.836 22.5066 15.7792 22.3727V11.7086C15.6237 11.8211 15.4377 11.8847 15.2454 11.8912C15.0038 11.8912 14.7567 11.772 14.5901 11.4242C14.4633 11.1617 14.3828 10.7691 14.3828 10.1937C14.3828 8.22828 16.6231 6.92344 16.6231 6.92344L16.6209 6.92672Z" fill="black"/>
</svg>
